<svg class="main-svg" xmlns="http://www.w3.org/2000/svg" xmlns:xlink="http://www.w3.org/1999/xlink" width="800" height="600" style="" viewBox="0 0 800 600"><rect x="0" y="0" width="800" height="600" style="fill: rgb(255, 255, 255); fill-opacity: 1;"/><defs id="defs-a0486c"><g class="clips"><clipPath id="clipa0486cxyplot" class="plotclip"><rect width="620" height="420"/></clipPath><clipPath class="axesclip" id="clipa0486cx"><rect x="100" y="0" width="620" height="600"/></clipPath><clipPath class="axesclip" id="clipa0486cy"><rect x="0" y="100" width="800" height="420"/></clipPath><clipPath class="axesclip" id="clipa0486cxy"><rect x="100" y="100" width="620" height="420"/></clipPath></g><g class="gradients"/><g class="patterns"/></defs><g class="bglayer"/><g class="layer-below"><g class="imagelayer"/><g class="shapelayer"/></g><g class="cartesianlayer"><g class="subplot xy"><g class="layer-subplot"><g class="shapelayer"/><g class="imagelayer"/></g><g class="minor-gridlayer"><g class="x"/><g class="y"/></g><g class="gridlayer"><g class="x"><path class="xgrid crisp" transform="translate(190.62,0)" d="M0,100v420" style="stroke: rgb(238, 238, 238); stroke-opacity: 1; stroke-width: 1px;"/><path class="xgrid crisp" transform="translate(289.97,0)" d="M0,100v420" style="stroke: rgb(238, 238, 238); stroke-opacity: 1; stroke-width: 1px;"/><path class="xgrid crisp" transform="translate(389.33,0)" d="M0,100v420" style="stroke: rgb(238, 238, 238); stroke-opacity: 1; stroke-width: 1px;"/><path class="xgrid crisp" transform="translate(488.69,0)" d="M0,100v420" style="stroke: rgb(238, 238, 238); stroke-opacity: 1; stroke-width: 1px;"/><path class="xgrid crisp" transform="translate(588.05,0)" d="M0,100v420" style="stroke: rgb(238, 238, 238); stroke-opacity: 1; stroke-width: 1px;"/><path class="xgrid crisp" transform="translate(687.41,0)" d="M0,100v420" style="stroke: rgb(238, 238, 238); stroke-opacity: 1; stroke-width: 1px;"/></g><g class="y"/></g><g class="zerolinelayer"/><path class="xlines-below"/><path class="ylines-below"/><g class="overlines-below"/><g class="xaxislayer-below"/><g class="yaxislayer-below"/><g class="overaxes-below"/><g class="plot" transform="translate(100,100)" clip-path="url(#clipa0486cxyplot)"><g class="violinlayer mlayer"><g class="trace violins" style="opacity: 0.8;"><path class="violin" d="M31,399L31,292.98Q37.23,282.25 40.96,278.82C44,276.02 47.49,273.45 50.91,273C54.14,272.57 57.75,273.96 60.87,275.71C64.46,277.72 67.65,281.57 70.83,285.12C74.32,289.01 77.51,293.8 80.79,298.28C84.14,302.86 87.37,307.77 90.74,312.31C94.01,316.73 97.29,321.17 100.7,325.19C103.94,329 107.24,332.65 110.66,335.9C113.89,338.97 117.21,341.77 120.61,344.25C123.85,346.61 127.19,348.69 130.57,350.52C133.83,352.29 137.17,353.78 140.53,355.1C143.81,356.39 147.15,357.44 150.49,358.36C153.79,359.26 157.11,359.98 160.44,360.57C163.75,361.15 167.07,361.57 170.4,361.87C173.71,362.17 177.04,362.33 180.36,362.37C183.68,362.41 187,362.32 190.32,362.14C193.64,361.96 196.96,361.65 200.27,361.27C203.59,360.89 206.91,360.39 210.23,359.86C213.55,359.33 216.87,358.7 220.19,358.09C223.51,357.47 226.82,356.8 230.14,356.17C233.46,355.54 236.78,354.9 240.1,354.33C243.42,353.76 246.74,353.22 250.06,352.76C253.38,352.3 256.7,351.9 260.02,351.58C263.33,351.26 266.65,351.01 269.97,350.85C273.29,350.69 276.61,350.59 279.93,350.6C283.25,350.61 286.57,350.7 289.89,350.9C293.21,351.1 296.53,351.41 299.84,351.82C303.17,352.23 306.49,352.77 309.8,353.38C313.13,354 316.45,354.74 319.76,355.51C323.09,356.28 326.4,357.17 329.72,358.02C333.04,358.88 336.35,359.79 339.67,360.64C342.99,361.49 346.31,362.35 349.63,363.14C352.95,363.93 356.27,364.67 359.59,365.38C362.9,366.08 366.22,366.73 369.54,367.37C372.86,368.01 376.18,368.6 379.5,369.2C382.82,369.8 386.14,370.39 389.46,370.99C392.78,371.59 396.1,372.2 399.42,372.82C402.74,373.43 406.05,374.06 409.37,374.68C412.69,375.3 416.01,375.92 419.33,376.52C422.65,377.12 425.97,377.7 429.29,378.26C432.61,378.82 435.92,379.36 439.24,379.86C442.56,380.36 445.88,380.82 449.2,381.26C452.52,381.7 455.84,382.1 459.16,382.49C462.48,382.88 465.8,383.22 469.12,383.58C472.44,383.93 475.75,384.27 479.07,384.62C482.39,384.97 485.71,385.32 489.03,385.68C492.35,386.04 495.67,386.42 498.99,386.8C502.31,387.18 505.63,387.59 508.95,387.98C512.27,388.37 515.58,388.78 518.9,389.16C522.22,389.55 525.54,389.93 528.86,390.29C532.18,390.65 535.5,390.99 538.82,391.32C542.14,391.65 545.45,391.95 548.77,392.25C552.09,392.55 555.41,392.83 558.73,393.12C562.05,393.41 565.37,393.68 568.69,393.97C572.01,394.26 575.33,394.55 578.65,394.85Q581.97,395.14 588.6,395.74L588.6,399" style="vector-effect: none; stroke-width: 1px; stroke: rgb(0, 0, 0); stroke-opacity: 1; fill: rgb(79, 122, 40); fill-opacity: 1;"/><path class="meanline" style="fill: none; vector-effect: none; stroke-width: 1px; stroke-dasharray: 2px, 1px; stroke: rgb(0, 0, 0); stroke-opacity: 1;" d="M184.67,362.3507995605469V399"/></g><g class="trace violins" style="opacity: 0.8;"><path class="violin" d="M31.4,273L31.4,195.2Q38.95,182.77 43.01,177.38C46.72,172.46 50.46,167.53 54.62,163.99C58.27,160.88 62.2,158.1 66.24,156.8C69.97,155.6 74.04,155.43 77.85,155.98C81.78,156.55 85.69,158.41 89.46,160.31C93.44,162.32 97.25,165.16 101.07,167.86C105,170.63 108.82,173.78 112.69,176.75C116.56,179.72 120.4,182.79 124.3,185.66C128.14,188.49 132,191.28 135.91,193.88C139.74,196.43 143.61,198.88 147.52,201.13C151.35,203.33 155.23,205.4 159.14,207.26C162.97,209.08 166.84,210.74 170.75,212.17C174.59,213.58 178.46,214.81 182.36,215.79C186.2,216.76 190.08,217.52 193.97,218.04C197.83,218.55 201.72,218.84 205.59,218.89C209.46,218.94 213.34,218.76 217.2,218.33C221.08,217.9 224.97,217.22 228.81,216.32C232.71,215.41 236.58,214.23 240.42,212.87C244.33,211.48 248.21,209.84 252.04,208.05C255.95,206.23 259.81,204.18 263.65,202.03C267.55,199.85 271.42,197.47 275.26,195.05C279.16,192.6 283.01,190 286.87,187.39C290.76,184.76 294.62,182.03 298.49,179.33C302.36,176.63 306.21,173.85 310.1,171.2C313.95,168.57 317.8,165.91 321.71,163.47C325.55,161.08 329.4,158.71 333.32,156.69C337.14,154.72 341.01,152.88 344.94,151.45C348.76,150.06 352.65,148.93 356.55,148.19C360.39,147.46 364.29,147.09 368.16,147C372.03,146.91 375.91,147.21 379.77,147.67C383.66,148.13 387.53,148.91 391.39,149.77C395.28,150.63 399.14,151.72 403,152.83C406.88,153.95 410.75,155.21 414.61,156.48C418.49,157.76 422.36,159.12 426.23,160.49C430.11,161.86 433.97,163.28 437.84,164.69C441.71,166.1 445.58,167.53 449.45,168.95C453.32,170.37 457.19,171.79 461.06,173.21C464.93,174.62 468.81,176.03 472.68,177.44C476.55,178.85 480.42,180.25 484.29,181.66C488.16,183.07 492.03,184.49 495.9,185.91C499.77,187.33 503.64,188.75 507.51,190.19C511.39,191.64 515.27,193.07 519.13,194.58C523.01,196.1 526.89,197.61 530.74,199.28C534.63,200.97 538.52,202.7 542.35,204.65C546.26,206.63 550.14,208.76 553.96,211.09C557.88,213.48 561.75,216.1 565.58,218.84C569.5,221.65 573.35,224.7 577.19,227.75Q581.09,230.84 588.8,237.29L588.8,273" style="vector-effect: none; stroke-width: 1px; stroke: rgb(0, 0, 0); stroke-opacity: 1; fill: rgb(55, 26, 148); fill-opacity: 1;"/><path class="meanline" style="fill: none; vector-effect: none; stroke-width: 1px; stroke-dasharray: 2px, 1px; stroke: rgb(0, 0, 0); stroke-opacity: 1;" d="M300.29,178.06613159179688V273"/></g><g class="trace violins" style="opacity: 0.8;"><path class="violin" d="M31.2,147L31.2,61.49Q38.73,48.18 42.82,42.44C46.52,37.25 50.25,32.04 54.44,28.38C58.07,25.21 62.02,22.34 66.06,21.16C69.79,20.07 73.9,20.16 77.68,21C81.66,21.89 85.56,24.27 89.3,26.67C93.33,29.25 97.12,32.78 100.92,36.18C104.87,39.71 108.67,43.71 112.54,47.52C116.42,51.34 120.26,55.33 124.17,59.07C128.01,62.74 131.85,66.39 135.79,69.75C139.6,73 143.46,76.14 147.41,78.94C151.21,81.63 155.08,84.14 159.03,86.27C162.84,88.33 166.72,90.14 170.65,91.57C174.47,92.96 178.37,94.06 182.27,94.78C186.11,95.49 190.02,95.86 193.89,95.9C197.76,95.94 201.66,95.6 205.51,95.01C209.41,94.41 213.29,93.44 217.13,92.3C221.04,91.14 224.9,89.65 228.75,88.11C232.65,86.54 236.51,84.72 240.37,82.95C244.26,81.17 248.11,79.24 252,77.48C255.86,75.73 259.72,73.95 263.62,72.42C267.47,70.91 271.34,69.49 275.24,68.36C279.08,67.25 282.97,66.33 286.86,65.66C290.71,65 294.6,64.6 298.48,64.37C302.35,64.14 306.23,64.16 310.1,64.26C313.98,64.36 317.85,64.66 321.72,64.99C325.6,65.32 329.47,65.76 333.34,66.23C337.22,66.7 341.09,67.23 344.96,67.8C348.84,68.37 352.71,68.99 356.58,69.64C360.46,70.3 364.33,71.01 368.2,71.73C372.08,72.45 375.95,73.23 379.82,73.98C383.7,74.73 387.57,75.52 391.45,76.25C395.32,76.98 399.19,77.7 403.07,78.37C406.94,79.04 410.81,79.65 414.69,80.25C418.56,80.84 422.44,81.39 426.31,81.94C430.18,82.49 434.06,83 437.93,83.55C441.8,84.1 445.68,84.66 449.55,85.23C453.42,85.81 457.3,86.41 461.17,87C465.04,87.59 468.92,88.21 472.79,88.79C476.66,89.37 480.53,89.95 484.41,90.49C488.28,91.03 492.16,91.53 496.03,92.01C499.9,92.49 503.78,92.91 507.65,93.39C511.52,93.87 515.4,94.3 519.27,94.87C523.15,95.44 527.04,96.03 530.9,96.83C534.79,97.64 538.67,98.56 542.52,99.72C546.42,100.89 550.3,102.27 554.14,103.84C558.05,105.44 561.92,107.3 565.76,109.26C569.67,111.26 573.52,113.5 577.38,115.72Q581.27,117.96 589,122.62L589,147" style="vector-effect: none; stroke-width: 1px; stroke: rgb(0, 0, 0); stroke-opacity: 1; fill: rgb(122, 74, 0); fill-opacity: 1;"/><path class="meanline" style="fill: none; vector-effect: none; stroke-width: 1px; stroke-dasharray: 2px, 1px; stroke: rgb(0, 0, 0); stroke-opacity: 1;" d="M263.23,72.57467651367188V147"/></g></g></g><g class="overplot"/><path class="xlines-above crisp" style="fill: none; stroke-width: 1px; stroke: rgb(68, 68, 68); stroke-opacity: 1;" d="M98,521.5H720"/><path class="ylines-above crisp" style="fill: none; stroke-width: 1px; stroke: rgb(68, 68, 68); stroke-opacity: 1;" d="M98.5,100V521"/><g class="overlines-above"/><g class="xaxislayer-above"><path class="xtick ticks crisp" style="stroke: rgb(68, 68, 68); stroke-opacity: 1; stroke-width: 1px;" d="M0,522v5" transform="translate(190.62,0)"/><path class="xtick ticks crisp" style="stroke: rgb(68, 68, 68); stroke-opacity: 1; stroke-width: 1px;" d="M0,522v5" transform="translate(289.97,0)"/><path class="xtick ticks crisp" style="stroke: rgb(68, 68, 68); stroke-opacity: 1; stroke-width: 1px;" d="M0,522v5" transform="translate(389.33,0)"/><path class="xtick ticks crisp" style="stroke: rgb(68, 68, 68); stroke-opacity: 1; stroke-width: 1px;" d="M0,522v5" transform="translate(488.69,0)"/><path class="xtick ticks crisp" style="stroke: rgb(68, 68, 68); stroke-opacity: 1; stroke-width: 1px;" d="M0,522v5" transform="translate(588.05,0)"/><path class="xtick ticks crisp" style="stroke: rgb(68, 68, 68); stroke-opacity: 1; stroke-width: 1px;" d="M0,522v5" transform="translate(687.41,0)"/><g class="xtick"><text text-anchor="middle" x="0" y="541.4" style="font-family: 'Open Sans', verdana, arial, sans-serif; font-size: 12px; fill: rgb(68, 68, 68); fill-opacity: 1; white-space: pre; opacity: 1;" transform="translate(190.62,0)">500</text></g><g class="xtick"><text text-anchor="middle" x="0" y="541.4" style="font-family: 'Open Sans', verdana, arial, sans-serif; font-size: 12px; fill: rgb(68, 68, 68); fill-opacity: 1; white-space: pre; opacity: 1;" transform="translate(289.97,0)">1000</text></g><g class="xtick"><text text-anchor="middle" x="0" y="541.4" style="font-family: 'Open Sans', verdana, arial, sans-serif; font-size: 12px; fill: rgb(68, 68, 68); fill-opacity: 1; white-space: pre; opacity: 1;" transform="translate(389.33,0)">1500</text></g><g class="xtick"><text text-anchor="middle" x="0" y="541.4" style="font-family: 'Open Sans', verdana, arial, sans-serif; font-size: 12px; fill: rgb(68, 68, 68); fill-opacity: 1; white-space: pre; opacity: 1;" transform="translate(488.69,0)">2000</text></g><g class="xtick"><text text-anchor="middle" x="0" y="541.4" style="font-family: 'Open Sans', verdana, arial, sans-serif; font-size: 12px; fill: rgb(68, 68, 68); fill-opacity: 1; white-space: pre; opacity: 1;" transform="translate(588.05,0)">2500</text></g><g class="xtick"><text text-anchor="middle" x="0" y="541.4" style="font-family: 'Open Sans', verdana, arial, sans-serif; font-size: 12px; fill: rgb(68, 68, 68); fill-opacity: 1; white-space: pre; opacity: 1;" transform="translate(687.41,0)">3000</text></g></g><g class="yaxislayer-above"><path class="ytick ticks crisp" style="stroke: rgb(68, 68, 68); stroke-opacity: 1; stroke-width: 1px;" d="M98,0h-5" transform="translate(0,499)"/><path class="ytick ticks crisp" style="stroke: rgb(68, 68, 68); stroke-opacity: 1; stroke-width: 1px;" d="M98,0h-5" transform="translate(0,373)"/><path class="ytick ticks crisp" style="stroke: rgb(68, 68, 68); stroke-opacity: 1; stroke-width: 1px;" d="M98,0h-5" transform="translate(0,247)"/><g class="ytick"><text text-anchor="end" x="90.6" y="4.199999999999999" style="font-family: 'Open Sans', verdana, arial, sans-serif; font-size: 12px; fill: rgb(68, 68, 68); fill-opacity: 1; white-space: pre; opacity: 1;" transform="translate(0,499) rotate(-30,90.6,-1.8000000000000007)">Control</text></g><g class="ytick"><text text-anchor="end" x="90.6" y="4.199999999999999" style="font-family: 'Open Sans', verdana, arial, sans-serif; font-size: 12px; fill: rgb(68, 68, 68); fill-opacity: 1; white-space: pre; opacity: 1;" transform="translate(0,373) rotate(-30,90.6,-1.8000000000000007)">Regenerat...</text></g><g class="ytick"><text text-anchor="end" x="90.6" y="4.199999999999999" style="font-family: 'Open Sans', verdana, arial, sans-serif; font-size: 12px; fill: rgb(68, 68, 68); fill-opacity: 1; white-space: pre; opacity: 1;" transform="translate(0,247) rotate(-30,90.6,-1.8000000000000007)">Regenerat...</text></g></g><g class="overaxes-above"/></g></g><g class="polarlayer"/><g class="smithlayer"/><g class="ternarylayer"/><g class="geolayer"/><g class="funnelarealayer"/><g class="pielayer"/><g class="iciclelayer"/><g class="treemaplayer"/><g class="sunburstlayer"/><g class="glimages"/><defs id="topdefs-a0486c"><g class="clips"/></defs><g class="layer-above"><g class="imagelayer"/><g class="shapelayer"/></g><g class="infolayer"><g class="g-gtitle"><text class="gtitle" style="font-family: 'Open Sans', verdana, arial, sans-serif; font-size: 17px; fill: rgb(68, 68, 68); opacity: 1; font-weight: normal; white-space: pre;" x="400" y="50" text-anchor="middle" dy="0em">Genes per cell distribution per Type</text></g><g class="g-xtitle"/><g class="g-ytitle"/></g></svg>