<svg class="main-svg" xmlns="http://www.w3.org/2000/svg" xmlns:xlink="http://www.w3.org/1999/xlink" width="580" height="600" style="" viewBox="0 0 580 600"><rect x="0" y="0" width="580" height="600" style="fill: rgb(255, 255, 255); fill-opacity: 1;"/><defs id="defs-8546a8"><g class="clips"><clipPath id="clip8546a8xyplot" class="plotclip"><rect width="400" height="420"/></clipPath><clipPath class="axesclip" id="clip8546a8x"><rect x="100" y="0" width="400" height="600"/></clipPath><clipPath class="axesclip" id="clip8546a8y"><rect x="0" y="100" width="580" height="420"/></clipPath><clipPath class="axesclip" id="clip8546a8xy"><rect x="100" y="100" width="400" height="420"/></clipPath></g><g class="gradients"/><g class="patterns"/></defs><g class="bglayer"/><g class="layer-below"><g class="imagelayer"/><g class="shapelayer"/></g><g class="cartesianlayer"><g class="subplot xy"><g class="layer-subplot"><g class="shapelayer"/><g class="imagelayer"/></g><g class="minor-gridlayer"><g class="x"/><g class="y"/></g><g class="gridlayer"><g class="x"><path class="xgrid crisp" transform="translate(119.75,0)" d="M0,100v420" style="stroke: rgb(238, 238, 238); stroke-opacity: 1; stroke-width: 1px;"/><path class="xgrid crisp" transform="translate(210.86,0)" d="M0,100v420" style="stroke: rgb(238, 238, 238); stroke-opacity: 1; stroke-width: 1px;"/><path class="xgrid crisp" transform="translate(301.98,0)" d="M0,100v420" style="stroke: rgb(238, 238, 238); stroke-opacity: 1; stroke-width: 1px;"/><path class="xgrid crisp" transform="translate(393.09,0)" d="M0,100v420" style="stroke: rgb(238, 238, 238); stroke-opacity: 1; stroke-width: 1px;"/><path class="xgrid crisp" transform="translate(484.21,0)" d="M0,100v420" style="stroke: rgb(238, 238, 238); stroke-opacity: 1; stroke-width: 1px;"/></g><g class="y"/></g><g class="zerolinelayer"/><path class="xlines-below"/><path class="ylines-below"/><g class="overlines-below"/><g class="xaxislayer-below"/><g class="yaxislayer-below"/><g class="overaxes-below"/><g class="plot" transform="translate(100,100)" clip-path="url(#clip8546a8xyplot)"><g class="boxlayer mlayer"><g class="trace boxes" style="opacity: 0.8;"><path class="box" d="M49.76,399V389.78M38.11,399V389.78H64.71V399ZM38.11,394.39H22.27M64.71,394.39H353.35M22.27,396.7V392.09M353.35,396.7V392.09" style="vector-effect: none; stroke-width: 1px; stroke: rgb(0, 0, 0); stroke-opacity: 1; fill: rgb(0, 120, 121); fill-opacity: 1;"/></g><g class="trace boxes" style="opacity: 0.8;"><path class="box" d="M46.48,380.56V371.34M32.94,380.56V371.34H72.43V380.56ZM32.94,375.95H20.87M72.43,375.95H328.82M20.87,378.26V373.65M328.82,378.26V373.65" style="vector-effect: none; stroke-width: 1px; stroke: rgb(0, 0, 0); stroke-opacity: 1; fill: rgb(0, 145, 147); fill-opacity: 1;"/></g><g class="trace boxes" style="opacity: 0.8;"><path class="box" d="M52.85,362.12V352.9M40.91,362.12V352.9H71.18V362.12ZM40.91,357.51H23.43M71.18,357.51H218.39M23.43,359.82V355.21M218.39,359.82V355.21" style="vector-effect: none; stroke-width: 1px; stroke: rgb(0, 0, 0); stroke-opacity: 1; fill: rgb(0, 168, 170); fill-opacity: 1;"/></g><g class="trace boxes" style="opacity: 0.8;"><path class="box" d="M71.75,343.68V334.46M60.45,343.68V334.46H99.28V343.68ZM60.45,339.07H30.45M99.28,339.07H377.98M30.45,341.38V336.77M377.98,341.38V336.77" style="vector-effect: none; stroke-width: 1px; stroke: rgb(0, 0, 0); stroke-opacity: 1; fill: rgb(79, 122, 40); fill-opacity: 1;"/></g><g class="trace boxes" style="opacity: 0.8;"><path class="box" d="M166.7,325.24V316.02M76.86,325.24V316.02H251.58V325.24ZM76.86,320.63H22.59M251.58,320.63H380M22.59,322.94V318.33M380,322.94V318.33" style="vector-effect: none; stroke-width: 1px; stroke: rgb(0, 0, 0); stroke-opacity: 1; fill: rgb(79, 122, 40); fill-opacity: 1;"/></g><g class="trace boxes" style="opacity: 0.8;"><path class="box" d="M115.65,306.8V297.59M80.94,306.8V297.59H164.92V306.8ZM80.94,302.2H26.64M164.92,302.2H378.49M26.64,304.5V299.89M378.49,304.5V299.89" style="vector-effect: none; stroke-width: 1px; stroke: rgb(0, 0, 0); stroke-opacity: 1; fill: rgb(216, 72, 0); fill-opacity: 1;"/></g><g class="trace boxes" style="opacity: 0.8;"><path class="box" d="M75.5,288.37V279.15M34.26,288.37V279.15H188.84V288.37ZM34.26,283.76H21.58M188.84,283.76H377.38M21.58,286.06V281.45M377.38,286.06V281.45" style="vector-effect: none; stroke-width: 1px; stroke: rgb(0, 0, 0); stroke-opacity: 1; fill: rgb(216, 72, 0); fill-opacity: 1;"/></g><g class="trace boxes" style="opacity: 0.8;"><path class="box" d="M53.95,269.93V260.71M34.15,269.93V260.71H81.86V269.93ZM34.15,265.32H22.62M81.86,265.32H313.96M22.62,267.62V263.01M313.96,267.62V263.01" style="vector-effect: none; stroke-width: 1px; stroke: rgb(0, 0, 0); stroke-opacity: 1; fill: rgb(121, 26, 62); fill-opacity: 1;"/></g><g class="trace boxes" style="opacity: 0.8;"><path class="box" d="M36.34,251.49V242.27M28.09,251.49V242.27H68.99V251.49ZM28.09,246.88H21.04M68.99,246.88H361.56M21.04,249.18V244.57M361.56,249.18V244.57" style="vector-effect: none; stroke-width: 1px; stroke: rgb(0, 0, 0); stroke-opacity: 1; fill: rgb(35, 35, 35); fill-opacity: 1;"/></g><g class="trace boxes" style="opacity: 0.8;"><path class="box" d="M32.36,233.05V223.83M28.05,233.05V223.83H51.35V233.05ZM28.05,228.44H21.11M51.35,228.44H371.33M21.11,230.74V226.13M371.33,230.74V226.13" style="vector-effect: none; stroke-width: 1px; stroke: rgb(0, 0, 0); stroke-opacity: 1; fill: rgb(96, 96, 96); fill-opacity: 1;"/></g><g class="trace boxes" style="opacity: 0.8;"><path class="box" d="M27.36,214.61V205.39M23.77,214.61V205.39H55.37V214.61ZM23.77,210H20M55.37,210H368.77M20,212.3V207.7M368.77,212.3V207.7" style="vector-effect: none; stroke-width: 1px; stroke: rgb(0, 0, 0); stroke-opacity: 1; fill: rgb(146, 146, 146); fill-opacity: 1;"/></g><g class="trace boxes" style="opacity: 0.8;"><path class="box" d="M34.76,196.17V186.95M27.32,196.17V186.95H56.82V196.17ZM27.32,191.56H20.41M56.82,191.56H377.34M20.41,193.87V189.26M377.34,193.87V189.26" style="vector-effect: none; stroke-width: 1px; stroke: rgb(0, 0, 0); stroke-opacity: 1; fill: rgb(192, 192, 192); fill-opacity: 1;"/></g><g class="trace boxes" style="opacity: 0.8;"><path class="box" d="M74.63,177.73V168.51M62.89,177.73V168.51H94.74V177.73ZM62.89,173.12H22.51M94.74,173.12H376.48M22.51,175.43V170.82M376.48,175.43V170.82" style="vector-effect: none; stroke-width: 1px; stroke: rgb(0, 0, 0); stroke-opacity: 1; fill: rgb(102, 156, 53); fill-opacity: 1;"/></g><g class="trace boxes" style="opacity: 0.8;"><path class="box" d="M59.07,159.29V150.07M34.42,159.29V150.07H113.14V159.29ZM34.42,154.68H20.83M113.14,154.68H368.21M20.83,156.99V152.38M368.21,156.99V152.38" style="vector-effect: none; stroke-width: 1px; stroke: rgb(0, 0, 0); stroke-opacity: 1; fill: rgb(167, 123, 0); fill-opacity: 1;"/></g><g class="trace boxes" style="opacity: 0.8;"><path class="box" d="M53.31,140.85V131.63M34.17,140.85V131.63H105.1V140.85ZM34.17,136.24H26.28M105.1,136.24H375.27M26.28,138.55V133.94M375.27,138.55V133.94" style="vector-effect: none; stroke-width: 1px; stroke: rgb(0, 0, 0); stroke-opacity: 1; fill: rgb(88, 52, 0); fill-opacity: 1;"/></g><g class="trace boxes" style="opacity: 0.8;"><path class="box" d="M71.23,122.41V113.2M43.25,122.41V113.2H114.14V122.41ZM43.25,117.8H21.74M114.14,117.8H374.05M21.74,120.11V115.5M374.05,120.11V115.5" style="vector-effect: none; stroke-width: 1px; stroke: rgb(0, 0, 0); stroke-opacity: 1; fill: rgb(181, 26, 0); fill-opacity: 1;"/></g><g class="trace boxes" style="opacity: 0.8;"><path class="box" d="M33.03,103.98V94.76M27.9,103.98V94.76H50.36V103.98ZM27.9,99.37H21.6M50.36,99.37H328.5M21.6,101.67V97.06M328.5,101.67V97.06" style="vector-effect: none; stroke-width: 1px; stroke: rgb(0, 0, 0); stroke-opacity: 1; fill: rgb(54, 172, 171); fill-opacity: 1;"/></g><g class="trace boxes" style="opacity: 0.8;"><path class="box" d="M84.83,85.54V76.32M58.46,85.54V76.32H133.01V85.54ZM58.46,80.93H21.86M133.01,80.93H333.06M21.86,83.23V78.62M333.06,83.23V78.62" style="vector-effect: none; stroke-width: 1px; stroke: rgb(0, 0, 0); stroke-opacity: 1; fill: rgb(55, 170, 187); fill-opacity: 1;"/></g><g class="trace boxes" style="opacity: 0.8;"><path class="box" d="M79.21,67.1V57.88M59.63,67.1V57.88H102.72V67.1ZM59.63,62.49H22.77M102.72,62.49H263.72M22.77,64.79V60.18M263.72,64.79V60.18" style="vector-effect: none; stroke-width: 1px; stroke: rgb(0, 0, 0); stroke-opacity: 1; fill: rgb(57, 168, 205); fill-opacity: 1;"/></g><g class="trace boxes" style="opacity: 0.8;"><path class="box" d="M160.04,48.66V39.44M108.48,48.66V39.44H235.01V48.66ZM108.48,44.05H23.07M235.01,44.05H357.54M23.07,46.35V41.74M357.54,46.35V41.74" style="vector-effect: none; stroke-width: 1px; stroke: rgb(0, 0, 0); stroke-opacity: 1; fill: rgb(102, 97, 0); fill-opacity: 1;"/></g><g class="trace boxes" style="opacity: 0.8;"><path class="box" d="M54.37,30.22V21M41.59,30.22V21H82.98V30.22ZM41.59,25.61H21.04M82.98,25.61H138.36M21.04,27.91V23.3M138.36,27.91V23.3" style="vector-effect: none; stroke-width: 1px; stroke: rgb(0, 0, 0); stroke-opacity: 1; fill: rgb(0, 30, 87); fill-opacity: 1;"/></g></g></g><g class="overplot"/><path class="xlines-above crisp" style="fill: none; stroke-width: 1px; stroke: rgb(68, 68, 68); stroke-opacity: 1;" d="M98,521.5H500"/><path class="ylines-above crisp" style="fill: none; stroke-width: 1px; stroke: rgb(68, 68, 68); stroke-opacity: 1;" d="M98.5,100V521"/><g class="overlines-above"/><g class="xaxislayer-above"><path class="xtick ticks crisp" style="stroke: rgb(68, 68, 68); stroke-opacity: 1; stroke-width: 1px;" d="M0,522v5" transform="translate(119.75,0)"/><path class="xtick ticks crisp" style="stroke: rgb(68, 68, 68); stroke-opacity: 1; stroke-width: 1px;" d="M0,522v5" transform="translate(210.86,0)"/><path class="xtick ticks crisp" style="stroke: rgb(68, 68, 68); stroke-opacity: 1; stroke-width: 1px;" d="M0,522v5" transform="translate(301.98,0)"/><path class="xtick ticks crisp" style="stroke: rgb(68, 68, 68); stroke-opacity: 1; stroke-width: 1px;" d="M0,522v5" transform="translate(393.09,0)"/><path class="xtick ticks crisp" style="stroke: rgb(68, 68, 68); stroke-opacity: 1; stroke-width: 1px;" d="M0,522v5" transform="translate(484.21,0)"/><g class="xtick"><text text-anchor="start" x="0" y="541.4" style="font-family: 'Open Sans', verdana, arial, sans-serif; font-size: 12px; fill: rgb(68, 68, 68); fill-opacity: 1; white-space: pre; opacity: 1;" transform="translate(119.75,0) rotate(45,0,535.4)">0</text></g><g class="xtick"><text text-anchor="start" x="0" y="541.4" style="font-family: 'Open Sans', verdana, arial, sans-serif; font-size: 12px; fill: rgb(68, 68, 68); fill-opacity: 1; white-space: pre; opacity: 1;" transform="translate(210.86,0) rotate(45,0,535.4)">5</text></g><g class="xtick"><text text-anchor="start" x="0" y="541.4" style="font-family: 'Open Sans', verdana, arial, sans-serif; font-size: 12px; fill: rgb(68, 68, 68); fill-opacity: 1; white-space: pre; opacity: 1;" transform="translate(301.98,0) rotate(45,0,535.4)">10</text></g><g class="xtick"><text text-anchor="start" x="0" y="541.4" style="font-family: 'Open Sans', verdana, arial, sans-serif; font-size: 12px; fill: rgb(68, 68, 68); fill-opacity: 1; white-space: pre; opacity: 1;" transform="translate(393.09,0) rotate(45,0,535.4)">15</text></g><g class="xtick"><text text-anchor="start" x="0" y="541.4" style="font-family: 'Open Sans', verdana, arial, sans-serif; font-size: 12px; fill: rgb(68, 68, 68); fill-opacity: 1; white-space: pre; opacity: 1;" transform="translate(484.21,0) rotate(45,0,535.4)">20</text></g></g><g class="yaxislayer-above"><path class="ytick ticks crisp" style="stroke: rgb(68, 68, 68); stroke-opacity: 1; stroke-width: 1px;" d="M98,0h-5" transform="translate(0,494.39)"/><path class="ytick ticks crisp" style="stroke: rgb(68, 68, 68); stroke-opacity: 1; stroke-width: 1px;" d="M98,0h-5" transform="translate(0,475.95)"/><path class="ytick ticks crisp" style="stroke: rgb(68, 68, 68); stroke-opacity: 1; stroke-width: 1px;" d="M98,0h-5" transform="translate(0,457.51)"/><path class="ytick ticks crisp" style="stroke: rgb(68, 68, 68); stroke-opacity: 1; stroke-width: 1px;" d="M98,0h-5" transform="translate(0,439.07)"/><path class="ytick ticks crisp" style="stroke: rgb(68, 68, 68); stroke-opacity: 1; stroke-width: 1px;" d="M98,0h-5" transform="translate(0,420.63)"/><path class="ytick ticks crisp" style="stroke: rgb(68, 68, 68); stroke-opacity: 1; stroke-width: 1px;" d="M98,0h-5" transform="translate(0,402.2)"/><path class="ytick ticks crisp" style="stroke: rgb(68, 68, 68); stroke-opacity: 1; stroke-width: 1px;" d="M98,0h-5" transform="translate(0,383.76)"/><path class="ytick ticks crisp" style="stroke: rgb(68, 68, 68); stroke-opacity: 1; stroke-width: 1px;" d="M98,0h-5" transform="translate(0,365.32)"/><path class="ytick ticks crisp" style="stroke: rgb(68, 68, 68); stroke-opacity: 1; stroke-width: 1px;" d="M98,0h-5" transform="translate(0,346.88)"/><path class="ytick ticks crisp" style="stroke: rgb(68, 68, 68); stroke-opacity: 1; stroke-width: 1px;" d="M98,0h-5" transform="translate(0,328.44)"/><path class="ytick ticks crisp" style="stroke: rgb(68, 68, 68); stroke-opacity: 1; stroke-width: 1px;" d="M98,0h-5" transform="translate(0,310)"/><path class="ytick ticks crisp" style="stroke: rgb(68, 68, 68); stroke-opacity: 1; stroke-width: 1px;" d="M98,0h-5" transform="translate(0,291.56)"/><path class="ytick ticks crisp" style="stroke: rgb(68, 68, 68); stroke-opacity: 1; stroke-width: 1px;" d="M98,0h-5" transform="translate(0,273.12)"/><path class="ytick ticks crisp" style="stroke: rgb(68, 68, 68); stroke-opacity: 1; stroke-width: 1px;" d="M98,0h-5" transform="translate(0,254.68)"/><path class="ytick ticks crisp" style="stroke: rgb(68, 68, 68); stroke-opacity: 1; stroke-width: 1px;" d="M98,0h-5" transform="translate(0,236.24)"/><path class="ytick ticks crisp" style="stroke: rgb(68, 68, 68); stroke-opacity: 1; stroke-width: 1px;" d="M98,0h-5" transform="translate(0,217.8)"/><path class="ytick ticks crisp" style="stroke: rgb(68, 68, 68); stroke-opacity: 1; stroke-width: 1px;" d="M98,0h-5" transform="translate(0,199.37)"/><path class="ytick ticks crisp" style="stroke: rgb(68, 68, 68); stroke-opacity: 1; stroke-width: 1px;" d="M98,0h-5" transform="translate(0,180.93)"/><path class="ytick ticks crisp" style="stroke: rgb(68, 68, 68); stroke-opacity: 1; stroke-width: 1px;" d="M98,0h-5" transform="translate(0,162.49)"/><path class="ytick ticks crisp" style="stroke: rgb(68, 68, 68); stroke-opacity: 1; stroke-width: 1px;" d="M98,0h-5" transform="translate(0,144.05)"/><path class="ytick ticks crisp" style="stroke: rgb(68, 68, 68); stroke-opacity: 1; stroke-width: 1px;" d="M98,0h-5" transform="translate(0,125.61)"/><g class="ytick"><text text-anchor="end" x="90.6" y="4.199999999999999" style="font-family: 'Open Sans', verdana, arial, sans-serif; font-size: 12px; fill: rgb(68, 68, 68); fill-opacity: 1; white-space: pre; opacity: 1;" transform="translate(0,494.39) rotate(1,90.6,-1.8000000000000007)">Endothelial (Emcn)  </text></g><g class="ytick"><text text-anchor="end" x="90.6" y="4.199999999999999" style="font-family: 'Open Sans', verdana, arial, sans-serif; font-size: 12px; fill: rgb(68, 68, 68); fill-opacity: 1; white-space: pre; opacity: 1;" transform="translate(0,475.95) rotate(1,90.6,-1.8000000000000007)">Endothelial (Fam167b)  </text></g><g class="ytick"><text text-anchor="end" x="90.6" y="4.199999999999999" style="font-family: 'Open Sans', verdana, arial, sans-serif; font-size: 12px; fill: rgb(68, 68, 68); fill-opacity: 1; white-space: pre; opacity: 1;" transform="translate(0,457.51) rotate(1,90.6,-1.8000000000000007)">Endothelial (Sema3g)  </text></g><g class="ytick"><text text-anchor="end" x="90.6" y="4.199999999999999" style="font-family: 'Open Sans', verdana, arial, sans-serif; font-size: 12px; fill: rgb(68, 68, 68); fill-opacity: 1; white-space: pre; opacity: 1;" transform="translate(0,439.07) rotate(1,90.6,-1.8000000000000007)">T cell (Cd3d-Cd3e)  </text></g><g class="ytick"><text text-anchor="end" x="90.6" y="4.199999999999999" style="font-family: 'Open Sans', verdana, arial, sans-serif; font-size: 12px; fill: rgb(68, 68, 68); fill-opacity: 1; white-space: pre; opacity: 1;" transform="translate(0,420.63) rotate(1,90.6,-1.8000000000000007)">T cell (Gm2682)  </text></g><g class="ytick"><text text-anchor="end" x="90.6" y="4.199999999999999" style="font-family: 'Open Sans', verdana, arial, sans-serif; font-size: 12px; fill: rgb(68, 68, 68); fill-opacity: 1; white-space: pre; opacity: 1;" transform="translate(0,402.2) rotate(1,90.6,-1.8000000000000007)">Macrophage (Adgre-Fcrls)  </text></g><g class="ytick"><text text-anchor="end" x="90.6" y="4.199999999999999" style="font-family: 'Open Sans', verdana, arial, sans-serif; font-size: 12px; fill: rgb(68, 68, 68); fill-opacity: 1; white-space: pre; opacity: 1;" transform="translate(0,383.76) rotate(1,90.6,-1.8000000000000007)">Macrophage(Cd300ld)  </text></g><g class="ytick"><text text-anchor="end" x="90.6" y="4.199999999999999" style="font-family: 'Open Sans', verdana, arial, sans-serif; font-size: 12px; fill: rgb(68, 68, 68); fill-opacity: 1; white-space: pre; opacity: 1;" transform="translate(0,365.32) rotate(1,90.6,-1.8000000000000007)">Macrophage (Lyve1)  </text></g><g class="ytick"><text text-anchor="end" x="90.6" y="4.199999999999999" style="font-family: 'Open Sans', verdana, arial, sans-serif; font-size: 12px; fill: rgb(68, 68, 68); fill-opacity: 1; white-space: pre; opacity: 1;" transform="translate(0,346.88) rotate(1,90.6,-1.8000000000000007)">Acinar cells  </text></g><g class="ytick"><text text-anchor="end" x="90.6" y="4.199999999999999" style="font-family: 'Open Sans', verdana, arial, sans-serif; font-size: 12px; fill: rgb(68, 68, 68); fill-opacity: 1; white-space: pre; opacity: 1;" transform="translate(0,328.44) rotate(1,90.6,-1.8000000000000007)">Acinar cells (Amy2a1-Gm20629)  </text></g><g class="ytick"><text text-anchor="end" x="90.6" y="4.199999999999999" style="font-family: 'Open Sans', verdana, arial, sans-serif; font-size: 12px; fill: rgb(68, 68, 68); fill-opacity: 1; white-space: pre; opacity: 1;" transform="translate(0,310) rotate(1,90.6,-1.8000000000000007)">Acinar to Ductal (Gm2663)  </text></g><g class="ytick"><text text-anchor="end" x="90.6" y="4.199999999999999" style="font-family: 'Open Sans', verdana, arial, sans-serif; font-size: 12px; fill: rgb(68, 68, 68); fill-opacity: 1; white-space: pre; opacity: 1;" transform="translate(0,291.56) rotate(1,90.6,-1.8000000000000007)">Acinar to Ductal (ADM)  </text></g><g class="ytick"><text text-anchor="end" x="90.6" y="4.199999999999999" style="font-family: 'Open Sans', verdana, arial, sans-serif; font-size: 12px; fill: rgb(68, 68, 68); fill-opacity: 1; white-space: pre; opacity: 1;" transform="translate(0,273.12) rotate(1,90.6,-1.8000000000000007)">B cell (Cd79a-Pax5)  </text></g><g class="ytick"><text text-anchor="end" x="90.6" y="4.199999999999999" style="font-family: 'Open Sans', verdana, arial, sans-serif; font-size: 12px; fill: rgb(68, 68, 68); fill-opacity: 1; white-space: pre; opacity: 1;" transform="translate(0,254.68) rotate(1,90.6,-1.8000000000000007)">Stellate cell (Svep1-Dpt)  </text></g><g class="ytick"><text text-anchor="end" x="90.6" y="4.199999999999999" style="font-family: 'Open Sans', verdana, arial, sans-serif; font-size: 12px; fill: rgb(68, 68, 68); fill-opacity: 1; white-space: pre; opacity: 1;" transform="translate(0,236.24) rotate(1,90.6,-1.8000000000000007)">Stellate cell (Fgf1)  </text></g><g class="ytick"><text text-anchor="end" x="90.6" y="4.199999999999999" style="font-family: 'Open Sans', verdana, arial, sans-serif; font-size: 12px; fill: rgb(68, 68, 68); fill-opacity: 1; white-space: pre; opacity: 1;" transform="translate(0,217.8) rotate(1,90.6,-1.8000000000000007)">Progenitor (ADM)  </text></g><g class="ytick"><text text-anchor="end" x="90.6" y="4.199999999999999" style="font-family: 'Open Sans', verdana, arial, sans-serif; font-size: 12px; fill: rgb(68, 68, 68); fill-opacity: 1; white-space: pre; opacity: 1;" transform="translate(0,199.37) rotate(1,90.6,-1.8000000000000007)">Muscularis cell  </text></g><g class="ytick"><text text-anchor="end" x="90.6" y="4.199999999999999" style="font-family: 'Open Sans', verdana, arial, sans-serif; font-size: 12px; fill: rgb(68, 68, 68); fill-opacity: 1; white-space: pre; opacity: 1;" transform="translate(0,180.93) rotate(1,90.6,-1.8000000000000007)">Fibroblast (Rgs5)  </text></g><g class="ytick"><text text-anchor="end" x="90.6" y="4.199999999999999" style="font-family: 'Open Sans', verdana, arial, sans-serif; font-size: 12px; fill: rgb(68, 68, 68); fill-opacity: 1; white-space: pre; opacity: 1;" transform="translate(0,162.49) rotate(1,90.6,-1.8000000000000007)">Dendritic (Cd209a)  </text></g><g class="ytick"><text text-anchor="end" x="90.6" y="4.199999999999999" style="font-family: 'Open Sans', verdana, arial, sans-serif; font-size: 12px; fill: rgb(68, 68, 68); fill-opacity: 1; white-space: pre; opacity: 1;" transform="translate(0,144.05) rotate(1,90.6,-1.8000000000000007)">Enterochromaffn cell  </text></g><g class="ytick"><text text-anchor="end" x="90.6" y="4.199999999999999" style="font-family: 'Open Sans', verdana, arial, sans-serif; font-size: 12px; fill: rgb(68, 68, 68); fill-opacity: 1; white-space: pre; opacity: 1;" transform="translate(0,125.61) rotate(1,90.6,-1.8000000000000007)">Pancreatic D cell  </text></g></g><g class="overaxes-above"/></g></g><g class="polarlayer"/><g class="smithlayer"/><g class="ternarylayer"/><g class="geolayer"/><g class="funnelarealayer"/><g class="pielayer"/><g class="iciclelayer"/><g class="treemaplayer"/><g class="sunburstlayer"/><g class="glimages"/><defs id="topdefs-8546a8"><g class="clips"/></defs><g class="layer-above"><g class="imagelayer"/><g class="shapelayer"/></g><g class="infolayer"><g class="g-gtitle"/><g class="g-xtitle"/><g class="g-ytitle"/></g></svg>