<?xml version="1.0" encoding="UTF-8" standalone="no"?>
<svg
   class="main-svg"
   width="653"
   height="1001"
   style=""
   viewBox="0 0 653 1001"
   version="1.1"
   id="svg494"
   sodipodi:docname="Working_violin_plot_Genes per cell_distribution.svg"
   inkscape:export-filename="Working_violin_plot_Genes per cell_distribution.png"
   inkscape:export-xdpi="300"
   inkscape:export-ydpi="300"
   inkscape:version="1.2 (dc2aeda, 2022-05-15)"
   xmlns:inkscape="http://www.inkscape.org/namespaces/inkscape"
   xmlns:sodipodi="http://sodipodi.sourceforge.net/DTD/sodipodi-0.dtd"
   xmlns="http://www.w3.org/2000/svg"
   xmlns:svg="http://www.w3.org/2000/svg">
  <sodipodi:namedview
     id="namedview496"
     pagecolor="#ffffff"
     bordercolor="#000000"
     borderopacity="0.25"
     inkscape:showpageshadow="2"
     inkscape:pageopacity="0.0"
     inkscape:pagecheckerboard="0"
     inkscape:deskcolor="#d1d1d1"
     showgrid="false"
     inkscape:zoom="1.025974"
     inkscape:cx="126.22152"
     inkscape:cy="506.3481"
     inkscape:window-width="2550"
     inkscape:window-height="1291"
     inkscape:window-x="0"
     inkscape:window-y="25"
     inkscape:window-maximized="0"
     inkscape:current-layer="svg494" />
  <rect
     x="0"
     y="0"
     width="653"
     height="1001"
     style="fill: rgb(255, 255, 255); fill-opacity: 1;"
     id="rect2" />
  <defs
     id="defs-17b0d3">
    <g
       class="clips"
       id="g16">
      <clipPath
         id="clip17b0d3xyplot"
         class="plotclip">
        <rect
           width="473"
           height="821"
           id="rect4" />
      </clipPath>
      <clipPath
         class="axesclip"
         id="clip17b0d3x">
        <rect
           x="100"
           y="0"
           width="473"
           height="1001"
           id="rect7" />
      </clipPath>
      <clipPath
         class="axesclip"
         id="clip17b0d3y">
        <rect
           x="0"
           y="100"
           width="653"
           height="821"
           id="rect10" />
      </clipPath>
      <clipPath
         class="axesclip"
         id="clip17b0d3xy">
        <rect
           x="100"
           y="100"
           width="473"
           height="821"
           id="rect13" />
      </clipPath>
    </g>
    <g
       class="gradients"
       id="g18" />
    <g
       class="patterns"
       id="g20" />
  </defs>
  <g
     class="bglayer"
     id="g23"
     transform="matrix(0.94297421,0,0,0.97738001,108.67578,21.75567)" />
  <g
     class="layer-below"
     id="g29"
     transform="matrix(0.94297421,0,0,0.97738001,108.67578,21.75567)">
    <g
       class="imagelayer"
       id="g25" />
    <g
       class="shapelayer"
       id="g27" />
  </g>
  <g
     class="cartesianlayer"
     id="g455"
     transform="matrix(0.94297421,0,0,0.97738001,108.67578,21.75567)">
    <g
       class="subplot xy"
       id="g453">
      <g
         class="layer-subplot"
         id="g35">
        <g
           class="shapelayer"
           id="g31" />
        <g
           class="imagelayer"
           id="g33" />
      </g>
      <g
         class="minor-gridlayer"
         id="g41">
        <g
           class="x"
           id="g37" />
        <g
           class="y"
           id="g39" />
      </g>
      <g
         class="gridlayer"
         id="g77">
        <g
           class="x"
           id="g73">
          <path
             class="xgrid crisp"
             transform="translate(123.65)"
             d="M 0,100 V 921"
             style="stroke:#eeeeee;stroke-width:1px;stroke-opacity:1"
             id="path43" />
          <path
             class="xgrid crisp"
             transform="translate(153.97)"
             d="M 0,100 V 921"
             style="stroke:#eeeeee;stroke-width:1px;stroke-opacity:1"
             id="path45" />
          <path
             class="xgrid crisp"
             transform="translate(184.29)"
             d="M 0,100 V 921"
             style="stroke:#eeeeee;stroke-width:1px;stroke-opacity:1"
             id="path47" />
          <path
             class="xgrid crisp"
             transform="translate(214.61)"
             d="M 0,100 V 921"
             style="stroke:#eeeeee;stroke-width:1px;stroke-opacity:1"
             id="path49" />
          <path
             class="xgrid crisp"
             transform="translate(244.93)"
             d="M 0,100 V 921"
             style="stroke:#eeeeee;stroke-width:1px;stroke-opacity:1"
             id="path51" />
          <path
             class="xgrid crisp"
             transform="translate(275.25)"
             d="M 0,100 V 921"
             style="stroke:#eeeeee;stroke-width:1px;stroke-opacity:1"
             id="path53" />
          <path
             class="xgrid crisp"
             transform="translate(305.57)"
             d="M 0,100 V 921"
             style="stroke:#eeeeee;stroke-width:1px;stroke-opacity:1"
             id="path55" />
          <path
             class="xgrid crisp"
             transform="translate(335.89)"
             d="M 0,100 V 921"
             style="stroke:#eeeeee;stroke-width:1px;stroke-opacity:1"
             id="path57" />
          <path
             class="xgrid crisp"
             transform="translate(366.21)"
             d="M 0,100 V 921"
             style="stroke:#eeeeee;stroke-width:1px;stroke-opacity:1"
             id="path59" />
          <path
             class="xgrid crisp"
             transform="translate(396.53)"
             d="M 0,100 V 921"
             style="stroke:#eeeeee;stroke-width:1px;stroke-opacity:1"
             id="path61" />
          <path
             class="xgrid crisp"
             transform="translate(426.86)"
             d="M 0,100 V 921"
             style="stroke:#eeeeee;stroke-width:1px;stroke-opacity:1"
             id="path63" />
          <path
             class="xgrid crisp"
             transform="translate(457.18)"
             d="M 0,100 V 921"
             style="stroke:#eeeeee;stroke-width:1px;stroke-opacity:1"
             id="path65" />
          <path
             class="xgrid crisp"
             transform="translate(487.5)"
             d="M 0,100 V 921"
             style="stroke:#eeeeee;stroke-width:1px;stroke-opacity:1"
             id="path67" />
          <path
             class="xgrid crisp"
             transform="translate(517.82)"
             d="M 0,100 V 921"
             style="stroke:#eeeeee;stroke-width:1px;stroke-opacity:1"
             id="path69" />
          <path
             class="xgrid crisp"
             transform="translate(548.14)"
             d="M 0,100 V 921"
             style="stroke:#eeeeee;stroke-width:1px;stroke-opacity:1"
             id="path71" />
        </g>
        <g
           class="y"
           id="g75" />
      </g>
      <g
         class="zerolinelayer"
         id="g79" />
      <path
         class="xlines-below"
         id="path81"
         d="" />
      <path
         class="ylines-below"
         id="path83"
         d="" />
      <g
         class="overlines-below"
         id="g85" />
      <g
         class="xaxislayer-below"
         id="g87" />
      <g
         class="yaxislayer-below"
         id="g89" />
      <g
         class="overaxes-below"
         id="g91" />
      <g
         class="plot"
         transform="translate(100,100)"
         clip-path="url(#clip17b0d3xyplot)"
         id="g221">
        <g
           class="violinlayer mlayer"
           id="g219">
          <g
             class="trace violins"
             style="opacity:0.8"
             id="g97">
            <path
               class="violin"
               d="m 43.36,779.95 v -0.56 q 5.11,-0.17 7.66,-0.27 c 2.55,-0.1 5.1,-0.21 7.65,-0.33 2.55,-0.12 5.11,-0.24 7.66,-0.37 2.55,-0.13 5.11,-0.26 7.66,-0.39 2.55,-0.13 5.11,-0.27 7.66,-0.4 2.55,-0.13 5.1,-0.25 7.65,-0.36 2.55,-0.11 5.11,-0.22 7.66,-0.32 2.55,-0.1 5.11,-0.2 7.66,-0.29 2.55,-0.09 5.1,-0.17 7.65,-0.26 2.55,-0.09 5.11,-0.17 7.66,-0.26 2.55,-0.09 5.11,-0.19 7.66,-0.29 2.55,-0.11 5.11,-0.22 7.66,-0.34 2.55,-0.12 5.1,-0.26 7.65,-0.4 2.55,-0.15 5.11,-0.3 7.66,-0.47 2.55,-0.17 5.11,-0.35 7.66,-0.54 2.55,-0.19 5.11,-0.38 7.66,-0.58 2.55,-0.2 5.1,-0.4 7.65,-0.6 2.55,-0.2 5.11,-0.39 7.66,-0.58 2.55,-0.18 5.11,-0.37 7.66,-0.53 2.55,-0.16 5.11,-0.3 7.66,-0.43 2.55,-0.12 5.1,-0.24 7.65,-0.32 2.55,-0.09 5.11,-0.15 7.66,-0.19 2.55,-0.04 5.11,-0.05 7.66,-0.04 2.55,0.01 5.1,0.04 7.65,0.1 2.55,0.06 5.11,0.15 7.66,0.25 2.55,0.11 5.11,0.24 7.66,0.38 2.55,0.14 5.11,0.3 7.66,0.46 2.55,0.16 5.1,0.34 7.65,0.5 2.55,0.17 5.11,0.33 7.66,0.49 2.55,0.15 5.11,0.3 7.66,0.44 2.55,0.14 5.11,0.27 7.66,0.39 2.55,0.12 5.1,0.22 7.65,0.32 2.55,0.1 5.11,0.19 7.66,0.27 2.55,0.08 5.11,0.16 7.66,0.22 2.55,0.06 5.11,0.11 7.66,0.16 2.55,0.05 5.1,0.09 7.65,0.13 2.55,0.04 5.11,0.06 7.66,0.09 2.55,0.03 5.11,0.05 7.66,0.07 2.55,0.02 5.11,0.04 7.66,0.06 2.55,0.02 5.1,0.04 7.65,0.06 2.55,0.02 5.11,0.05 7.66,0.08 2.55,0.03 5.11,0.06 7.66,0.11 2.55,0.04 5.1,0.1 7.65,0.16 2.55,0.06 5.11,0.13 7.66,0.21 2.55,0.08 5.11,0.17 7.66,0.26 2.55,0.09 5.11,0.19 7.66,0.29 2.55,0.09 5.1,0.19 7.65,0.28 2.55,0.09 5.11,0.19 7.66,0.28 2.55,0.09 5.11,0.18 7.66,0.28 2.55,0.1 5.11,0.2 7.66,0.31 2.55,0.11 5.1,0.22 7.65,0.34 2.55,0.12 5.11,0.25 7.66,0.37 q 2.55,0.13 7.66,0.38 v 1.38"
               style="vector-effect:none;fill:#007879;fill-opacity:1;stroke:#000000;stroke-width:1px;stroke-opacity:1"
               id="path93" />
            <path
               class="meanline"
               style="vector-effect:none;fill:none;stroke:#000000;stroke-width:1px;stroke-dasharray:2px, 1px;stroke-opacity:1"
               d="M 248.67,771.93066 V 779.95"
               id="path95" />
          </g>
          <g
             class="trace violins"
             style="opacity:0.8"
             id="g103">
            <path
               class="violin"
               d="m 23.65,743.46 v -4.61 q 1.27,-0.83 1.91,-1.22 c 0.63,-0.38 1.26,-0.77 1.9,-1.1 0.63,-0.33 1.27,-0.63 1.91,-0.88 0.63,-0.25 1.26,-0.46 1.9,-0.63 0.63,-0.17 1.27,-0.3 1.91,-0.4 0.63,-0.1 1.27,-0.16 1.91,-0.21 0.63,-0.05 1.27,-0.06 1.9,-0.07 0.64,-0.01 1.27,0 1.91,0.03 0.63,0.03 1.27,0.07 1.9,0.13 0.64,0.06 1.28,0.14 1.91,0.25 0.64,0.11 1.28,0.25 1.91,0.4 0.64,0.15 1.27,0.33 1.9,0.52 0.64,0.19 1.28,0.41 1.91,0.62 0.64,0.21 1.27,0.43 1.9,0.65 0.64,0.22 1.27,0.44 1.91,0.65 0.64,0.21 1.27,0.41 1.91,0.6 0.63,0.19 1.26,0.37 1.9,0.53 0.63,0.16 1.27,0.31 1.91,0.44 0.63,0.13 1.26,0.25 1.9,0.35 0.63,0.1 1.27,0.19 1.91,0.26 0.64,0.07 1.27,0.12 1.91,0.18 0.63,0.05 1.27,0.1 1.9,0.15 0.64,0.05 1.27,0.1 1.91,0.16 0.63,0.06 1.27,0.12 1.9,0.19 0.64,0.07 1.27,0.15 1.91,0.24 0.64,0.09 1.27,0.18 1.91,0.28 0.63,0.1 1.27,0.2 1.9,0.3 0.64,0.1 1.27,0.2 1.91,0.3 0.63,0.09 1.27,0.18 1.9,0.27 0.64,0.09 1.27,0.18 1.91,0.26 0.64,0.08 1.27,0.15 1.91,0.23 0.63,0.07 1.27,0.15 1.9,0.22 0.64,0.07 1.27,0.12 1.91,0.18 0.63,0.05 1.27,0.11 1.9,0.15 0.64,0.04 1.27,0.08 1.91,0.11 0.64,0.03 1.27,0.05 1.91,0.06 0.63,0.01 1.27,0.02 1.9,0.02 0.64,0 1.27,-0.01 1.91,-0.02 0.64,-0.01 1.27,-0.02 1.91,-0.03 0.63,-0.01 1.27,-0.04 1.9,-0.05 0.64,-0.01 1.27,-0.02 1.91,-0.03 0.63,-0.01 1.27,-0.01 1.9,-0.01 0.64,0 1.27,0.01 1.91,0.02 0.64,0.01 1.27,0.02 1.91,0.03 0.63,0.01 1.27,0.03 1.9,0.05 0.64,0.02 1.27,0.04 1.91,0.06 0.63,0.02 1.27,0.04 1.9,0.05 0.64,0.02 1.27,0.03 1.91,0.04 0.64,0.01 1.27,0.02 1.91,0.03 0.63,0.01 1.27,0.01 1.9,0.01 0.64,0 1.27,-0.01 1.91,-0.01 0.63,0 1.27,0 1.9,0 0.64,0 1.27,0 1.91,0 0.64,0 1.27,0 1.91,0.01 0.63,0 1.27,0.01 1.9,0.02 0.64,0.01 1.27,0.02 1.91,0.03 0.63,0.01 1.27,0.02 1.9,0.03 0.64,0.01 1.27,0.01 1.91,0.02 0.64,0 1.27,0.01 1.91,0.01 0.63,0 1.27,0 1.9,0 0.64,0 1.27,0 1.91,-0.01 0.63,0 1.27,-0.02 1.9,-0.02 0.64,-0.01 1.27,-0.01 1.91,-0.01 0.64,0 1.27,-0.01 1.91,-0.01 0.63,0 1.27,0.01 1.9,0.01 0.64,0 1.27,0 1.91,0.01 0.63,0 1.27,0.01 1.9,0.02 0.64,0.01 1.27,0.02 1.91,0.03 0.64,0.01 1.27,0.02 1.91,0.03 0.63,0.01 1.27,0.01 1.9,0.02 0.64,0.01 1.27,0.02 1.91,0.03 0.63,0.01 1.27,0.01 1.9,0.01 0.64,0 1.27,0.01 1.91,0.01 0.64,0 1.27,0.01 1.91,0.01 0.63,0 1.27,0 1.9,0 0.64,0 1.27,0 1.91,0 0.63,0 1.27,0 1.9,0 0.64,0 1.27,0 1.91,0 0.64,0 1.27,0 1.91,0 0.63,0 1.27,0 1.9,0 0.64,0 1.27,0 1.91,0 0.63,0 1.27,0 1.9,0 0.64,0 1.27,0 1.91,0 0.64,0 1.27,0 1.91,0 0.63,0 1.27,0 1.9,0 0.64,0 1.27,0 1.91,0 0.63,0 1.27,0 1.9,0 0.64,0 1.27,0 1.91,0 0.64,0 1.27,0 1.91,0 0.63,0 1.27,0 1.9,0 0.64,0 1.27,0 1.91,0 0.63,0 1.27,0 1.9,0 0.64,0 1.27,0 1.91,0 0.64,0 1.27,0 1.91,0 0.63,0 1.27,0 1.9,0 0.64,0 1.27,0 1.91,0 0.63,0 1.27,-0.01 1.9,-0.01 0.64,0 1.27,-0.01 1.91,-0.01 0.64,-0.01 1.27,-0.01 1.91,-0.02 0.63,-0.01 1.27,-0.01 1.9,-0.02 0.64,-0.01 1.27,-0.01 1.91,-0.02 0.63,-0.01 1.27,-0.01 1.9,-0.02 0.64,-0.01 1.27,-0.02 1.91,-0.02 0.64,0 1.27,0 1.91,0 0.63,0 1.27,0.01 1.9,0.01 0.64,0.01 1.27,0.01 1.91,0.02 0.63,0.01 1.27,0.02 1.9,0.03 0.64,0.01 1.27,0.01 1.91,0.02 0.64,0.01 1.27,0.01 1.91,0.02 0.63,0 1.27,0.01 1.9,0.01 0.64,0 1.27,0 1.91,0 0.63,0 1.27,0 1.9,0 0.64,0 1.27,0 1.91,0 0.64,0 1.27,0 1.91,0 0.63,0 1.27,-0.01 1.9,-0.01 0.64,0 1.27,-0.01 1.91,-0.01 0.64,-0.01 1.27,-0.01 1.91,-0.02 0.63,0 1.27,-0.01 1.9,-0.01 0.64,0 1.27,0 1.91,0 0.63,0 1.27,0 1.9,0 0.64,0 1.27,0.01 1.91,0.01 0.64,0 1.27,0.01 1.91,0.01 0.63,0 1.27,0.01 1.9,0.01 0.64,0 1.27,0.01 1.91,0.01 0.63,0 1.27,0 1.9,0 0.64,0 1.27,0 1.91,0 0.64,0 1.27,-0.01 1.91,-0.01 0.63,0 1.27,-0.01 1.9,-0.01 0.64,0 1.27,-0.01 1.91,-0.01 0.63,0 1.27,-0.01 1.9,-0.01 q 0.64,0 1.91,0 v 0.06"
               style="vector-effect:none;fill:#009193;fill-opacity:1;stroke:#000000;stroke-width:1px;stroke-opacity:1"
               id="path99" />
            <path
               class="meanline"
               style="vector-effect:none;fill:none;stroke:#000000;stroke-width:1px;stroke-dasharray:2px, 1px;stroke-opacity:1"
               d="M 50.44,736.97815 V 743.46"
               id="path101" />
          </g>
          <g
             class="trace violins"
             style="opacity:0.8"
             id="g109">
            <path
               class="violin"
               d="m 72.31,706.97 v -1.89 q 9.25,-0.26 13.88,-0.38 c 4.62,-0.12 9.25,-0.23 13.87,-0.34 4.63,-0.11 9.25,-0.22 13.88,-0.34 4.62,-0.12 9.25,-0.25 13.87,-0.4 4.63,-0.15 9.25,-0.31 13.88,-0.51 4.62,-0.19 9.25,-0.42 13.87,-0.66 4.63,-0.24 9.25,-0.51 13.88,-0.8 4.62,-0.28 9.25,-0.61 13.87,-0.91 4.62,-0.3 9.25,-0.62 13.87,-0.91 4.63,-0.29 9.25,-0.57 13.88,-0.81 4.62,-0.24 9.25,-0.46 13.87,-0.63 4.63,-0.17 9.25,-0.3 13.88,-0.39 4.62,-0.09 9.25,-0.14 13.87,-0.15 4.63,-0.01 9.25,0.02 13.88,0.07 4.62,0.05 9.25,0.14 13.87,0.23 4.63,0.09 9.25,0.21 13.88,0.31 4.62,0.1 9.25,0.2 13.87,0.28 4.62,0.07 9.25,0.14 13.87,0.17 4.63,0.03 9.25,0.02 13.88,0 4.62,-0.02 9.25,-0.09 13.87,-0.14 4.63,-0.06 9.25,-0.14 13.88,-0.19 4.62,-0.05 9.25,-0.1 13.87,-0.1 4.63,0 9.25,0.03 13.88,0.13 4.62,0.1 9.25,0.24 13.87,0.45 4.63,0.21 9.26,0.49 13.88,0.8 4.63,0.31 9.25,0.69 13.87,1.07 q 4.62,0.38 13.87,1.22 v 4.82"
               style="vector-effect:none;fill:#00a8aa;fill-opacity:1;stroke:#000000;stroke-width:1px;stroke-opacity:1"
               id="path105" />
            <path
               class="meanline"
               style="vector-effect:none;fill:none;stroke:#000000;stroke-width:1px;stroke-dasharray:2px, 1px;stroke-opacity:1"
               d="M 289.26,698.34454 V 706.97"
               id="path107" />
          </g>
          <g
             class="trace violins"
             style="opacity:0.8"
             id="g115">
            <path
               class="violin"
               d="m 23.65,670.48 v -3.35 q 5.79,-0.41 8.69,-0.56 c 2.9,-0.14 5.79,-0.25 8.69,-0.31 2.89,-0.06 5.79,-0.06 8.68,-0.03 2.9,0.03 5.79,0.13 8.69,0.23 2.9,0.1 5.79,0.25 8.69,0.38 2.9,0.13 5.79,0.28 8.69,0.41 2.89,0.13 5.79,0.26 8.68,0.37 2.9,0.11 5.79,0.2 8.69,0.28 2.9,0.08 5.79,0.13 8.69,0.18 2.9,0.05 5.79,0.09 8.69,0.12 2.9,0.03 5.79,0.05 8.69,0.06 2.89,0.01 5.79,0.01 8.68,0.01 2.9,0 5.79,-0.02 8.69,-0.04 2.9,-0.02 5.79,-0.05 8.69,-0.1 2.9,-0.05 5.79,-0.11 8.69,-0.19 2.89,-0.08 5.79,-0.16 8.68,-0.27 2.9,-0.11 5.79,-0.23 8.69,-0.37 2.9,-0.14 5.79,-0.29 8.69,-0.45 2.9,-0.17 5.79,-0.35 8.69,-0.54 2.9,-0.19 5.79,-0.39 8.69,-0.59 2.89,-0.2 5.79,-0.42 8.68,-0.63 2.9,-0.21 5.79,-0.42 8.69,-0.63 2.9,-0.21 5.79,-0.41 8.69,-0.61 2.9,-0.2 5.79,-0.39 8.69,-0.57 2.89,-0.18 5.79,-0.36 8.68,-0.53 2.9,-0.17 5.79,-0.33 8.69,-0.48 2.9,-0.15 5.79,-0.29 8.69,-0.41 2.9,-0.12 5.79,-0.24 8.69,-0.32 2.89,-0.08 5.79,-0.15 8.68,-0.18 2.9,-0.03 5.79,-0.03 8.69,0 2.9,0.03 5.79,0.1 8.69,0.2 2.9,0.1 5.79,0.24 8.69,0.4 2.9,0.16 5.79,0.35 8.69,0.55 2.89,0.2 5.79,0.44 8.68,0.67 2.9,0.23 5.79,0.47 8.69,0.71 2.9,0.24 5.79,0.48 8.69,0.71 2.9,0.23 5.79,0.47 8.69,0.69 2.89,0.22 5.79,0.43 8.68,0.63 2.9,0.2 5.79,0.4 8.69,0.58 2.9,0.18 5.79,0.36 8.69,0.52 2.9,0.16 5.79,0.31 8.69,0.45 2.9,0.14 5.79,0.28 8.69,0.4 2.89,0.12 5.79,0.24 8.68,0.34 2.9,0.11 5.79,0.2 8.69,0.29 2.9,0.09 5.79,0.18 8.69,0.26 2.9,0.08 5.79,0.16 8.69,0.24 2.89,0.08 5.79,0.15 8.68,0.22 2.9,0.08 5.79,0.15 8.69,0.23 q 2.9,0.08 8.69,0.23 v 0.8"
               style="vector-effect:none;fill:#4f7a28;fill-opacity:1;stroke:#000000;stroke-width:1px;stroke-opacity:1"
               id="path111" />
            <path
               class="meanline"
               style="vector-effect:none;fill:none;stroke:#000000;stroke-width:1px;stroke-dasharray:2px, 1px;stroke-opacity:1"
               d="M 233.66,663.18713 V 670.48"
               id="path113" />
          </g>
          <g
             class="trace violins"
             style="opacity:0.8"
             id="g121">
            <path
               class="violin"
               d="m 23.95,633.99 v -5.55 q 2.78,-0.95 4.18,-1.37 c 1.39,-0.42 2.77,-0.82 4.17,-1.14 1.38,-0.31 2.77,-0.57 4.17,-0.75 1.39,-0.18 2.79,-0.27 4.18,-0.31 1.39,-0.04 2.78,0.01 4.17,0.08 1.39,0.07 2.78,0.22 4.17,0.35 1.39,0.13 2.79,0.3 4.18,0.45 1.39,0.15 2.78,0.31 4.17,0.43 1.39,0.12 2.78,0.23 4.17,0.31 1.39,0.09 2.79,0.14 4.18,0.2 1.39,0.06 2.78,0.09 4.17,0.14 1.39,0.05 2.78,0.09 4.17,0.16 1.39,0.07 2.79,0.16 4.18,0.28 1.39,0.12 2.78,0.27 4.17,0.44 1.39,0.17 2.78,0.38 4.17,0.6 1.39,0.22 2.79,0.46 4.18,0.7 1.39,0.24 2.78,0.49 4.17,0.72 1.39,0.23 2.78,0.46 4.17,0.66 1.39,0.2 2.79,0.39 4.18,0.55 1.39,0.16 2.78,0.3 4.17,0.42 1.39,0.12 2.78,0.23 4.17,0.32 1.39,0.1 2.79,0.17 4.18,0.25 1.39,0.08 2.78,0.15 4.17,0.23 1.39,0.07 2.78,0.15 4.17,0.22 1.39,0.07 2.79,0.14 4.18,0.21 1.39,0.07 2.78,0.14 4.17,0.2 1.39,0.06 2.78,0.12 4.17,0.17 1.39,0.05 2.79,0.1 4.18,0.15 1.39,0.05 2.78,0.09 4.17,0.13 1.39,0.04 2.78,0.08 4.17,0.12 1.39,0.04 2.78,0.08 4.17,0.11 1.39,0.04 2.79,0.07 4.18,0.1 1.39,0.03 2.78,0.05 4.17,0.07 1.39,0.02 2.78,0.03 4.17,0.04 1.39,0.01 2.79,0.02 4.18,0.02 1.39,0 2.78,0 4.17,-0.01 1.39,-0.01 2.78,-0.02 4.17,-0.04 1.39,-0.02 2.79,-0.03 4.18,-0.06 1.39,-0.02 2.78,-0.06 4.17,-0.09 1.39,-0.03 2.78,-0.06 4.17,-0.09 1.39,-0.03 2.79,-0.05 4.18,-0.07 1.39,-0.02 2.78,-0.04 4.17,-0.05 1.39,-0.01 2.78,0 4.17,0.01 1.39,0.01 2.79,0.03 4.18,0.05 1.39,0.02 2.78,0.06 4.17,0.09 1.39,0.03 2.78,0.07 4.17,0.1 1.39,0.03 2.79,0.06 4.18,0.09 1.39,0.03 2.78,0.05 4.17,0.07 1.39,0.02 2.78,0.04 4.17,0.06 1.39,0.02 2.79,0.03 4.18,0.05 1.39,0.01 2.78,0.03 4.17,0.04 1.39,0.01 2.78,0.02 4.17,0.03 1.39,0.01 2.79,0.02 4.18,0.03 1.39,0.01 2.78,0.01 4.17,0.01 1.39,0 2.78,0 4.17,0 1.39,0 2.79,-0.01 4.18,-0.02 1.39,-0.01 2.78,-0.02 4.17,-0.03 1.39,-0.01 2.78,-0.02 4.17,-0.02 1.39,-0.01 2.79,-0.01 4.18,-0.01 1.39,0 2.78,0.01 4.17,0.01 1.39,0.01 2.78,0.01 4.17,0.02 1.39,0.01 2.79,0.01 4.18,0.02 1.39,0.01 2.78,0.02 4.17,0.03 1.39,0.01 2.78,0.02 4.17,0.03 1.39,0.01 2.79,0.01 4.18,0.01 1.39,0 2.78,0 4.17,0 1.39,0 2.78,-0.01 4.17,-0.01 1.39,-0.01 2.79,-0.01 4.18,-0.02 1.39,-0.01 2.78,-0.02 4.17,-0.03 1.39,-0.01 2.78,-0.02 4.17,-0.03 1.39,-0.01 2.79,-0.01 4.18,-0.02 q 1.39,0 4.17,-0.01 v 0.15"
               style="vector-effect:none;fill:#4f7a28;fill-opacity:1;stroke:#000000;stroke-width:1px;stroke-opacity:1"
               id="path117" />
            <path
               class="meanline"
               style="vector-effect:none;fill:none;stroke:#000000;stroke-width:1px;stroke-dasharray:2px, 1px;stroke-opacity:1"
               d="M 72.56,626.92603 V 633.99"
               id="path119" />
          </g>
          <g
             class="trace violins"
             style="opacity:0.8"
             id="g127">
            <path
               class="violin"
               d="m 41.54,597.51 v -0.24 q 5.12,-0.05 7.68,-0.07 c 2.56,-0.02 5.13,-0.04 7.69,-0.07 2.56,-0.02 5.12,-0.05 7.68,-0.08 2.56,-0.03 5.12,-0.06 7.68,-0.09 2.56,-0.03 5.12,-0.06 7.68,-0.09 2.56,-0.03 5.13,-0.07 7.69,-0.11 2.56,-0.04 5.12,-0.07 7.68,-0.11 2.56,-0.04 5.12,-0.08 7.68,-0.13 2.56,-0.05 5.13,-0.1 7.69,-0.16 2.56,-0.06 5.12,-0.12 7.68,-0.19 2.56,-0.07 5.12,-0.14 7.68,-0.22 2.56,-0.08 5.13,-0.16 7.69,-0.24 2.56,-0.08 5.12,-0.17 7.68,-0.25 2.56,-0.08 5.12,-0.16 7.68,-0.25 2.56,-0.09 5.13,-0.18 7.69,-0.27 2.56,-0.09 5.12,-0.17 7.68,-0.26 2.56,-0.09 5.12,-0.17 7.68,-0.26 2.56,-0.08 5.12,-0.17 7.68,-0.25 2.56,-0.08 5.13,-0.17 7.69,-0.25 2.56,-0.08 5.12,-0.16 7.68,-0.24 2.56,-0.07 5.12,-0.14 7.68,-0.21 2.56,-0.07 5.13,-0.14 7.69,-0.2 2.56,-0.06 5.12,-0.11 7.68,-0.17 2.56,-0.06 5.12,-0.11 7.68,-0.17 2.56,-0.06 5.13,-0.12 7.69,-0.19 2.56,-0.07 5.12,-0.15 7.68,-0.24 2.56,-0.09 5.12,-0.19 7.68,-0.29 2.56,-0.1 5.13,-0.21 7.69,-0.32 2.56,-0.11 5.12,-0.23 7.68,-0.34 2.56,-0.11 5.12,-0.22 7.68,-0.33 2.56,-0.11 5.13,-0.21 7.69,-0.31 2.56,-0.1 5.12,-0.2 7.68,-0.31 2.56,-0.11 5.12,-0.22 7.68,-0.34 2.56,-0.12 5.12,-0.24 7.68,-0.37 2.56,-0.13 5.13,-0.27 7.69,-0.4 2.56,-0.13 5.12,-0.26 7.68,-0.38 2.56,-0.12 5.12,-0.23 7.68,-0.32 2.56,-0.09 5.13,-0.17 7.69,-0.23 2.56,-0.06 5.12,-0.11 7.68,-0.14 2.56,-0.03 5.12,-0.04 7.68,-0.04 2.56,0 5.13,0.02 7.69,0.04 2.56,0.02 5.12,0.06 7.68,0.09 2.56,0.03 5.12,0.07 7.68,0.11 2.56,0.04 5.13,0.09 7.69,0.14 2.56,0.05 5.12,0.09 7.68,0.14 2.56,0.05 5.12,0.1 7.68,0.16 2.56,0.06 5.12,0.12 7.68,0.21 2.56,0.09 5.13,0.19 7.69,0.32 2.56,0.13 5.12,0.29 7.68,0.48 2.56,0.19 5.12,0.42 7.68,0.67 2.56,0.26 5.13,0.55 7.69,0.86 2.56,0.31 5.12,0.66 7.68,1 q 2.56,0.34 7.68,1.06 v 3.85"
               style="vector-effect:none;fill:#d84800;fill-opacity:1;stroke:#000000;stroke-width:1px;stroke-opacity:1"
               id="path123" />
            <path
               class="meanline"
               style="vector-effect:none;fill:none;stroke:#000000;stroke-width:1px;stroke-dasharray:2px, 1px;stroke-opacity:1"
               d="M 313.89,589.31647 V 597.51"
               id="path125" />
          </g>
          <g
             class="trace violins"
             style="opacity:0.8"
             id="g133">
            <path
               class="violin"
               d="m 23.8,561.02 v -5.32 q 2.91,-0.94 4.37,-1.36 c 1.45,-0.42 2.91,-0.81 4.37,-1.14 1.45,-0.32 2.91,-0.6 4.37,-0.81 1.45,-0.21 2.91,-0.35 4.37,-0.43 1.45,-0.08 2.91,-0.09 4.37,-0.07 1.46,0.02 2.92,0.12 4.38,0.22 1.46,0.11 2.91,0.25 4.37,0.41 1.46,0.16 2.91,0.34 4.37,0.53 1.46,0.19 2.91,0.4 4.37,0.6 1.46,0.2 2.91,0.41 4.37,0.62 1.46,0.21 2.91,0.42 4.37,0.62 1.46,0.2 2.91,0.39 4.37,0.58 1.46,0.19 2.91,0.37 4.37,0.55 1.46,0.17 2.91,0.34 4.37,0.5 1.46,0.16 2.91,0.31 4.37,0.45 1.46,0.14 2.91,0.27 4.37,0.4 1.46,0.12 2.91,0.24 4.37,0.35 1.46,0.11 2.91,0.21 4.37,0.31 1.46,0.1 2.91,0.18 4.37,0.27 1.46,0.08 2.91,0.17 4.37,0.24 1.46,0.08 2.92,0.14 4.38,0.21 1.46,0.06 2.91,0.12 4.37,0.18 1.46,0.06 2.91,0.11 4.37,0.16 1.46,0.05 2.91,0.1 4.37,0.14 1.46,0.04 2.91,0.08 4.37,0.12 1.46,0.04 2.91,0.07 4.37,0.11 1.46,0.03 2.91,0.07 4.37,0.1 1.46,0.03 2.91,0.07 4.37,0.1 1.46,0.03 2.91,0.06 4.37,0.09 1.46,0.03 2.91,0.05 4.37,0.08 1.46,0.03 2.91,0.06 4.37,0.09 1.46,0.03 2.91,0.06 4.37,0.09 1.46,0.03 2.91,0.06 4.37,0.09 1.46,0.03 2.91,0.06 4.37,0.09 1.46,0.03 2.92,0.05 4.38,0.07 1.46,0.02 2.91,0.05 4.37,0.06 1.46,0.01 2.91,0.01 4.37,0.02 1.46,0 2.91,0.01 4.37,0.01 1.46,0 2.91,-0.01 4.37,-0.01 1.46,0 2.91,0 4.37,0 1.46,0 2.91,0 4.37,0.01 1.46,0.01 2.91,0.03 4.37,0.04 1.46,0.02 2.91,0.03 4.37,0.05 1.46,0.02 2.91,0.04 4.37,0.06 1.46,0.02 2.91,0.05 4.37,0.07 1.46,0.02 2.91,0.05 4.37,0.07 1.46,0.02 2.91,0.03 4.37,0.05 1.46,0.01 2.91,0.03 4.37,0.04 1.46,0.01 2.91,0.02 4.37,0.03 1.46,0.01 2.92,0.01 4.38,0.01 1.46,0 2.91,0.01 4.37,0.01 1.46,0 2.91,0 4.37,0 1.46,0 2.91,0 4.37,0 1.46,0 2.91,-0.01 4.37,-0.01 1.46,0 2.91,-0.01 4.37,-0.01 1.46,0 2.91,0 4.37,0 1.46,0 2.91,0 4.37,0 1.46,0 2.91,0.01 4.37,0.01 1.46,0 2.91,0.01 4.37,0.01 1.46,0 2.91,0.01 4.37,0.01 1.46,0.01 2.91,0.01 4.37,0.02 1.46,0.01 2.91,0.01 4.37,0.02 1.46,0.01 2.91,0.02 4.37,0.03 1.46,0.01 2.91,0.02 4.37,0.03 1.46,0.01 2.92,0.02 4.38,0.03 1.46,0.01 2.91,0.02 4.37,0.03 1.46,0.01 2.91,0.01 4.37,0.02 1.46,0.01 2.91,0.01 4.37,0.02 1.46,0 2.91,0.01 4.37,0.01 1.46,0 2.91,0 4.37,0 1.46,0 2.91,-0.01 4.37,-0.01 1.46,0 2.91,-0.01 4.37,-0.01 1.46,0 2.91,-0.01 4.37,-0.01 1.46,0 2.91,-0.01 4.37,-0.01 1.46,0 2.91,-0.01 4.37,-0.01 1.46,0 2.91,-0.01 4.37,-0.01 1.46,0 2.91,-0.01 4.37,-0.01 1.46,-0.01 2.91,-0.01 4.37,-0.02 1.46,0 2.91,-0.01 4.37,-0.01 1.46,0 2.92,-0.01 4.38,-0.01 1.46,0 2.91,-0.01 4.37,-0.01 1.46,0 2.91,0 4.37,0 1.46,0 2.91,0.01 4.37,0.01 1.46,0.01 2.91,0.01 4.37,0.02 1.46,0.01 2.91,0.01 4.37,0.02 1.46,0.01 2.91,0.02 4.37,0.03 1.46,0.01 2.91,0.01 4.37,0.02 1.46,0 2.91,0.01 4.37,0.01 1.46,0 2.91,0 4.37,0 1.46,0 2.91,0 4.37,0 1.46,0 2.91,-0.01 4.37,-0.01 1.46,0 2.91,0 4.37,0 1.46,0 2.91,-0.01 4.37,-0.01 q 1.46,0 4.37,0 v 0.05"
               style="vector-effect:none;fill:#d84800;fill-opacity:1;stroke:#000000;stroke-width:1px;stroke-opacity:1"
               id="path129" />
            <path
               class="meanline"
               style="vector-effect:none;fill:none;stroke:#000000;stroke-width:1px;stroke-dasharray:2px, 1px;stroke-opacity:1"
               d="M 81.21,556.0885 V 561.02"
               id="path131" />
          </g>
          <g
             class="trace violins"
             style="opacity:0.8"
             id="g139">
            <path
               class="violin"
               d="m 24.86,524.53 v -6.21 q 13.15,-0.72 19.73,-0.97 c 6.58,-0.25 13.15,-0.43 19.73,-0.52 6.58,-0.09 13.15,-0.08 19.73,-0.04 6.58,0.04 13.15,0.17 19.73,0.27 6.58,0.1 13.15,0.24 19.73,0.33 6.58,0.08 13.15,0.17 19.73,0.18 6.58,0.01 13.15,-0.02 19.73,-0.09 6.58,-0.07 13.15,-0.2 19.73,-0.33 6.58,-0.13 13.15,-0.3 19.73,-0.45 6.58,-0.15 13.15,-0.31 19.73,-0.45 6.58,-0.13 13.15,-0.26 19.73,-0.36 6.58,-0.1 13.15,-0.19 19.73,-0.26 6.58,-0.07 13.15,-0.12 19.73,-0.16 6.58,-0.04 13.15,-0.06 19.73,-0.06 6.58,0 13.15,0 19.73,0.04 6.58,0.04 13.15,0.09 19.73,0.18 6.58,0.09 13.15,0.2 19.73,0.36 6.58,0.16 13.15,0.35 19.73,0.58 6.58,0.23 13.15,0.5 19.73,0.8 6.58,0.3 13.15,0.65 19.73,1.01 q 6.58,0.36 19.73,1.15 v 5"
               style="vector-effect:none;fill:#791a3e;fill-opacity:1;stroke:#000000;stroke-width:1px;stroke-opacity:1"
               id="path135" />
            <path
               class="meanline"
               style="vector-effect:none;fill:none;stroke:#000000;stroke-width:1px;stroke-dasharray:2px, 1px;stroke-opacity:1"
               d="M 229.13,516.11487 V 524.53"
               id="path137" />
          </g>
          <g
             class="trace violins"
             style="opacity:0.8"
             id="g145">
            <path
               class="violin"
               d="m 23.65,488.04 v -5.72 q 1.82,-0.97 2.75,-1.39 c 0.91,-0.41 1.82,-0.81 2.75,-1.11 0.91,-0.3 1.83,-0.54 2.75,-0.69 0.91,-0.15 1.83,-0.21 2.75,-0.21 0.92,0 1.84,0.09 2.75,0.22 0.92,0.13 1.84,0.35 2.75,0.57 0.92,0.23 1.84,0.51 2.75,0.78 0.92,0.27 1.83,0.57 2.75,0.86 0.92,0.29 1.83,0.59 2.75,0.87 0.92,0.28 1.83,0.56 2.75,0.82 0.91,0.26 1.83,0.5 2.75,0.73 0.91,0.23 1.83,0.44 2.75,0.63 0.91,0.19 1.83,0.37 2.75,0.53 0.92,0.16 1.83,0.29 2.75,0.42 0.91,0.13 1.83,0.24 2.74,0.34 0.92,0.1 1.83,0.19 2.75,0.28 0.92,0.09 1.83,0.16 2.75,0.24 0.92,0.07 1.83,0.14 2.75,0.21 0.92,0.06 1.83,0.12 2.75,0.18 0.92,0.05 1.83,0.11 2.75,0.15 0.92,0.04 1.83,0.07 2.75,0.09 0.92,0.02 1.83,0.03 2.75,0.04 0.92,0.01 1.83,0 2.75,0 0.92,0 1.83,-0.01 2.75,-0.01 0.92,0 1.83,0 2.75,0 0.92,0 1.83,0.01 2.75,0.03 0.92,0.02 1.83,0.05 2.75,0.08 0.92,0.03 1.83,0.08 2.75,0.12 0.92,0.04 1.83,0.09 2.75,0.13 0.92,0.05 1.83,0.1 2.75,0.14 0.92,0.04 1.83,0.09 2.75,0.12 0.92,0.03 1.83,0.06 2.75,0.08 0.92,0.02 1.83,0.04 2.75,0.05 0.92,0.01 1.83,0.02 2.75,0.02 0.92,0 1.83,0 2.75,0 0.92,0 1.83,-0.01 2.75,-0.01 0.92,0 1.83,0 2.75,0 0.92,0 1.83,0 2.75,0 0.92,0 1.83,0.01 2.75,0.02 0.92,0.01 1.83,0.02 2.75,0.03 0.92,0.01 1.83,0.02 2.75,0.03 0.92,0.01 1.83,0.03 2.75,0.04 0.92,0.01 1.83,0.02 2.75,0.03 0.91,0.01 1.83,0.02 2.74,0.02 0.92,0.01 1.83,0.01 2.75,0.01 0.92,0 1.83,0 2.75,0 0.92,0 1.83,0 2.75,0 0.92,0 1.83,-0.01 2.75,-0.01 0.92,0 1.83,0.01 2.75,0.01 0.92,0 1.83,0.01 2.75,0.01 0.92,0.01 1.83,0.01 2.75,0.02 0.92,0.01 1.83,0.01 2.75,0.02 0.92,0 1.83,0.01 2.75,0.01 0.92,0 1.83,0 2.75,0 0.92,0 1.83,0 2.75,-0.01 0.92,-0.01 1.83,-0.02 2.75,-0.03 0.92,-0.01 1.83,-0.01 2.75,-0.02 0.92,-0.01 1.83,-0.01 2.75,-0.02 0.92,0 1.83,-0.01 2.75,-0.01 0.92,0 1.83,0.01 2.75,0.01 0.92,0 1.83,0.01 2.75,0.01 0.92,0.01 1.83,0.01 2.75,0.02 0.92,0.01 1.83,0.01 2.75,0.02 0.92,0 1.83,0.01 2.75,0.01 0.92,0 1.83,0 2.75,0 0.92,0 1.83,-0.01 2.75,-0.01 0.92,0 1.83,-0.01 2.75,-0.01 0.92,0 1.83,-0.01 2.75,-0.01 0.92,0 1.83,0 2.75,0 0.92,0 1.83,0.01 2.75,0.01 0.92,0.01 1.83,0.01 2.75,0.02 0.92,0.01 1.83,0.02 2.75,0.03 0.91,0.01 1.83,0.03 2.74,0.04 0.92,0.01 1.83,0.03 2.75,0.04 0.92,0.01 1.83,0.01 2.75,0.02 0.92,0.01 1.83,0.02 2.75,0.03 0.92,0.01 1.83,0.01 2.75,0.01 0.92,0 1.83,0 2.75,0 0.92,0 1.83,0 2.75,0 0.92,0 1.83,-0.01 2.75,-0.01 0.92,0 1.83,-0.01 2.75,-0.01 0.92,0 1.83,-0.01 2.75,-0.01 0.92,-0.01 1.83,-0.01 2.75,-0.02 0.92,-0.01 1.83,-0.01 2.75,-0.02 0.92,-0.01 1.83,-0.01 2.75,-0.02 0.92,-0.01 1.83,-0.01 2.75,-0.02 0.92,-0.01 1.83,-0.01 2.75,-0.02 0.92,0 1.83,-0.01 2.75,-0.01 0.92,-0.01 1.83,-0.01 2.75,-0.02 0.92,0 1.83,-0.01 2.75,-0.01 0.92,0 1.83,0.01 2.75,0.01 0.92,0 1.83,0 2.75,0.01 0.92,0.01 1.83,0.02 2.75,0.03 0.92,0.01 1.83,0.02 2.75,0.03 0.92,0.01 1.83,0.02 2.75,0.03 0.92,0.01 1.83,0.02 2.75,0.03 0.92,0.01 1.83,0.01 2.75,0.02 0.92,0 1.83,0.01 2.75,0.01 0.92,0 1.83,0.01 2.75,0.01 0.92,0 1.83,0 2.75,0 0.92,0 1.83,0.01 2.75,0.01 0.91,0 1.83,0 2.74,0 0.92,0 1.83,0 2.75,0 0.92,0 1.83,-0.01 2.75,-0.01 0.92,0 1.83,0 2.75,0 0.92,0 1.83,-0.01 2.75,-0.01 0.92,0 1.83,-0.01 2.75,-0.01 0.92,0 1.83,-0.01 2.75,-0.01 0.92,0 1.83,-0.01 2.75,-0.01 0.92,0 1.83,0 2.75,0 0.92,0 1.83,0 2.75,0 0.92,0 1.83,0 2.75,0 0.92,0 1.83,0.01 2.75,0.01 0.92,0 1.83,0.01 2.75,0.01 0.92,0 1.83,0 2.75,0 0.92,0 1.83,0 2.75,0 0.92,0 1.83,-0.01 2.75,-0.01 0.92,-0.01 1.83,-0.01 2.75,-0.02 0.92,-0.01 1.83,-0.01 2.75,-0.02 0.92,0 1.83,-0.01 2.75,-0.01 0.92,-0.01 1.83,-0.01 2.75,-0.02 0.92,0 1.83,-0.01 2.75,-0.01 0.92,0 1.83,0 2.75,0 0.92,0 1.83,0 2.75,0 0.92,0 1.83,0.01 2.75,0.01 0.92,0 1.83,0 2.75,0 0.92,0 1.83,0.01 2.75,0.01 0.92,0 1.83,0 2.75,0 0.92,0 1.83,0 2.75,0 0.92,0 1.83,0 2.75,0 0.91,0 1.83,0 2.74,0 0.92,0 1.83,0 2.75,0 0.92,0 1.83,0 2.75,0 0.92,0 1.83,0.01 2.75,0.01 0.92,0.01 1.83,0.01 2.75,0.02 0.92,0 1.83,0.01 2.75,0.01 0.92,0.01 1.83,0.01 2.75,0.02 0.92,0 1.83,0.01 2.75,0.01 0.92,0 1.83,0.01 2.75,0.01 0.92,0 1.83,0 2.75,0 0.92,0 1.83,-0.01 2.75,-0.01 0.92,-0.01 1.83,-0.01 2.75,-0.02 0.92,-0.01 1.83,-0.01 2.75,-0.02 0.92,-0.01 1.83,-0.02 2.75,-0.03 0.92,-0.01 1.83,-0.02 2.75,-0.03 0.92,-0.01 1.83,-0.02 2.75,-0.03 0.92,-0.01 1.83,-0.02 2.75,-0.03 0.92,-0.01 1.83,-0.01 2.75,-0.01 0.92,0 1.83,-0.01 2.75,-0.01 0.92,0 1.83,-0.01 2.75,-0.01 0.92,0 1.83,0.01 2.75,0.01 0.92,0 1.83,0.01 2.75,0.01 q 0.92,0.01 2.75,0.02 v 0.18"
               style="vector-effect:none;fill:#232323;fill-opacity:1;stroke:#000000;stroke-width:1px;stroke-opacity:1"
               id="path141" />
            <path
               class="meanline"
               style="vector-effect:none;fill:none;stroke:#000000;stroke-width:1px;stroke-dasharray:2px, 1px;stroke-opacity:1"
               d="M 68.52,486.05078 V 488.04"
               id="path143" />
          </g>
          <g
             class="trace violins"
             style="opacity:0.8"
             id="g151">
            <path
               class="violin"
               d="m 26.83,451.55 v -3.97 q 7.39,-0.93 11.09,-1.39 c 3.7,-0.46 7.39,-0.95 11.09,-1.38 3.69,-0.42 7.38,-0.84 11.08,-1.17 3.69,-0.33 7.39,-0.63 11.09,-0.83 3.69,-0.2 7.39,-0.33 11.09,-0.38 3.7,-0.05 7.39,-0.02 11.09,0.06 3.69,0.08 7.39,0.25 11.08,0.44 3.7,0.19 7.39,0.45 11.09,0.7 3.7,0.26 7.39,0.55 11.09,0.83 3.69,0.27 7.39,0.56 11.08,0.82 3.7,0.26 7.39,0.51 11.09,0.74 3.7,0.22 7.39,0.43 11.09,0.61 3.69,0.18 7.39,0.34 11.08,0.48 3.7,0.14 7.39,0.26 11.09,0.37 3.7,0.11 7.39,0.21 11.09,0.3 3.69,0.09 7.39,0.18 11.08,0.26 3.7,0.08 7.39,0.16 11.09,0.24 3.7,0.08 7.39,0.16 11.09,0.23 3.7,0.07 7.39,0.13 11.09,0.19 3.69,0.06 7.39,0.11 11.08,0.15 3.7,0.04 7.39,0.06 11.09,0.08 3.7,0.02 7.39,0.03 11.09,0.03 3.69,0 7.39,-0.01 11.08,-0.01 3.7,0 7.39,-0.01 11.09,-0.01 3.7,0 7.39,0 11.09,0.02 3.69,0.02 7.39,0.04 11.08,0.07 3.7,0.03 7.39,0.08 11.09,0.12 3.7,0.05 7.39,0.1 11.09,0.15 3.69,0.05 7.39,0.11 11.08,0.16 3.7,0.05 7.39,0.1 11.09,0.15 3.7,0.05 7.39,0.09 11.09,0.13 3.7,0.04 7.39,0.06 11.09,0.1 3.69,0.03 7.39,0.07 11.08,0.11 3.7,0.04 7.39,0.08 11.09,0.12 3.7,0.05 7.39,0.09 11.09,0.15 3.69,0.05 7.39,0.12 11.08,0.18 3.7,0.07 7.39,0.14 11.09,0.21 q 3.7,0.07 11.09,0.21 v 0.73"
               style="vector-effect:none;fill:#606060;fill-opacity:1;stroke:#000000;stroke-width:1px;stroke-opacity:1"
               id="path147" />
            <path
               class="meanline"
               style="vector-effect:none;fill:none;stroke:#000000;stroke-width:1px;stroke-dasharray:2px, 1px;stroke-opacity:1"
               d="M 164.61,446.84885 V 451.55"
               id="path149" />
          </g>
          <g
             class="trace violins"
             style="opacity:0.8"
             id="g157">
            <path
               class="violin"
               d="m 24.71,415.06 v -7.08 q 4.47,-0.9 6.71,-1.22 c 2.23,-0.32 4.48,-0.58 6.72,-0.72 2.23,-0.14 4.47,-0.15 6.71,-0.1 2.24,0.05 4.48,0.23 6.71,0.43 2.24,0.2 4.47,0.5 6.71,0.78 2.24,0.28 4.47,0.62 6.71,0.91 2.24,0.3 4.48,0.6 6.72,0.86 2.24,0.26 4.47,0.5 6.71,0.71 2.24,0.2 4.47,0.37 6.71,0.52 2.24,0.14 4.47,0.25 6.71,0.35 2.24,0.09 4.47,0.16 6.71,0.22 2.24,0.06 4.48,0.1 6.72,0.15 2.24,0.05 4.47,0.08 6.71,0.13 2.24,0.05 4.47,0.1 6.71,0.17 2.24,0.07 4.47,0.15 6.71,0.24 2.24,0.09 4.48,0.2 6.72,0.31 2.24,0.11 4.47,0.23 6.71,0.35 2.24,0.12 4.47,0.25 6.71,0.37 2.24,0.12 4.47,0.25 6.71,0.37 2.24,0.12 4.47,0.25 6.71,0.37 2.24,0.12 4.48,0.24 6.72,0.36 2.24,0.12 4.47,0.23 6.71,0.34 2.24,0.11 4.47,0.22 6.71,0.32 2.24,0.1 4.47,0.19 6.71,0.27 2.24,0.08 4.47,0.15 6.71,0.2 2.24,0.05 4.48,0.09 6.72,0.12 2.24,0.03 4.47,0.05 6.71,0.06 2.24,0.01 4.47,0.01 6.71,0.01 2.24,0 4.47,-0.01 6.71,-0.02 2.24,-0.01 4.48,-0.02 6.72,-0.03 2.24,-0.01 4.47,-0.03 6.71,-0.03 2.24,0 4.47,0 6.71,0 2.24,0 4.47,0.01 6.71,0.02 2.24,0.01 4.47,0.03 6.71,0.04 2.24,0.01 4.48,0.02 6.72,0.04 2.24,0.01 4.47,0.04 6.71,0.05 2.24,0.01 4.47,0.02 6.71,0.03 2.24,0.01 4.47,0.01 6.71,0.01 2.24,0 4.47,-0.01 6.71,-0.01 2.24,-0.01 4.48,-0.01 6.72,-0.02 2.24,-0.01 4.47,-0.03 6.71,-0.04 2.24,-0.01 4.47,-0.02 6.71,-0.03 2.24,-0.01 4.47,-0.02 6.71,-0.03 2.24,-0.01 4.47,-0.01 6.71,-0.01 2.24,0 4.48,-0.01 6.72,-0.01 2.24,0 4.47,0 6.71,0 2.24,0 4.47,0 6.71,0 2.24,0 4.47,0.01 6.71,0.01 2.24,0.01 4.48,0.01 6.72,0.02 2.24,0.01 4.47,0.01 6.71,0.02 q 2.24,0.01 6.71,0.02 v 0.17"
               style="vector-effect:none;fill:#929292;fill-opacity:1;stroke:#000000;stroke-width:1px;stroke-opacity:1"
               id="path153" />
            <path
               class="meanline"
               style="vector-effect:none;fill:none;stroke:#000000;stroke-width:1px;stroke-dasharray:2px, 1px;stroke-opacity:1"
               d="M 80.01,409.76785 V 415.06"
               id="path155" />
          </g>
          <g
             class="trace violins"
             style="opacity:0.8"
             id="g163">
            <path
               class="violin"
               d="m 23.65,378.57 v -7.12 q 2.01,-0.88 3.03,-1.2 c 1,-0.31 2.01,-0.56 3.03,-0.69 1,-0.13 2.02,-0.16 3.03,-0.11 1.01,0.05 2.03,0.22 3.03,0.41 1.02,0.2 2.02,0.49 3.03,0.77 1.02,0.28 2.03,0.62 3.04,0.93 1.01,0.31 2.02,0.63 3.03,0.93 1.01,0.29 2.02,0.58 3.03,0.84 1.01,0.26 2.02,0.5 3.03,0.71 1.01,0.21 2.02,0.4 3.03,0.57 1.01,0.17 2.02,0.32 3.03,0.45 1.01,0.13 2.02,0.24 3.03,0.35 1.01,0.1 2.02,0.19 3.03,0.28 1.01,0.08 2.02,0.16 3.03,0.23 1.01,0.07 2.02,0.14 3.03,0.2 1.01,0.06 2.02,0.12 3.03,0.18 1.01,0.06 2.03,0.11 3.04,0.17 1.01,0.05 2.02,0.11 3.03,0.16 1.01,0.05 2.02,0.1 3.03,0.15 1.01,0.05 2.02,0.09 3.03,0.14 1.01,0.05 2.02,0.09 3.03,0.14 1.01,0.04 2.02,0.09 3.03,0.13 1.01,0.05 2.02,0.1 3.03,0.14 1.01,0.04 2.02,0.08 3.03,0.12 1.01,0.04 2.02,0.08 3.03,0.12 1.01,0.03 2.02,0.06 3.03,0.09 1.01,0.03 2.02,0.06 3.03,0.08 1.01,0.02 2.02,0.05 3.03,0.06 1.01,0.02 2.03,0.02 3.04,0.03 1.01,0.01 2.02,0.02 3.03,0.03 1.01,0.01 2.02,0.01 3.03,0.02 1.01,0.01 2.02,0.01 3.03,0.02 1.01,0.01 2.02,0.02 3.03,0.03 1.01,0.01 2.02,0.01 3.03,0.02 1.01,0.01 2.02,0.03 3.03,0.04 1.01,0.01 2.02,0.01 3.03,0.02 1.01,0.01 2.02,0.02 3.03,0.03 1.01,0.01 2.02,0.01 3.03,0.02 1.01,0.01 2.02,0.01 3.03,0.02 1.01,0.01 2.03,0.01 3.04,0.02 1.01,0 2.02,0.01 3.03,0.01 1.01,0 2.02,0.01 3.03,0.01 1.01,0 2.02,0 3.03,0 1.01,0 2.02,-0.01 3.03,-0.01 1.01,0 2.02,0 3.03,0 1.01,0 2.02,0 3.03,0 1.01,0 2.02,0 3.03,0 1.01,0 2.02,0.01 3.03,0.02 1.01,0.01 2.02,0.01 3.03,0.02 1.01,0.01 2.02,0.02 3.03,0.03 1.01,0.01 2.03,0.01 3.04,0.02 1.01,0.01 2.02,0.02 3.03,0.03 1.01,0.01 2.02,0.01 3.03,0.02 1.01,0.01 2.02,0.01 3.03,0.02 1.01,0.01 2.02,0.01 3.03,0.02 1.01,0 2.02,0.01 3.03,0.01 1.01,0 2.02,0.01 3.03,0.01 1.01,0 2.02,0 3.03,0 1.01,0 2.02,0 3.03,0 1.01,0 2.02,-0.01 3.03,-0.01 1.01,-0.01 2.02,-0.01 3.03,-0.02 1.01,-0.01 2.02,-0.02 3.03,-0.02 1.01,-0.01 2.03,-0.01 3.04,-0.01 1.01,0 2.02,-0.01 3.03,-0.01 1.01,0 2.02,0.01 3.03,0.01 1.01,0 2.02,0.01 3.03,0.01 1.01,0.01 2.02,0.01 3.03,0.02 1.01,0.01 2.02,0.02 3.03,0.03 1.01,0.01 2.02,0.02 3.03,0.03 1.01,0.01 2.02,0.02 3.03,0.03 1.01,0.01 2.02,0.02 3.03,0.03 1.01,0.01 2.02,0.01 3.03,0.02 1.01,0.01 2.02,0.02 3.03,0.02 1.01,0 2.03,0 3.04,0 1.01,0 2.02,0 3.03,0 1.01,0 2.02,-0.01 3.03,-0.02 1.01,0 2.02,-0.01 3.03,-0.01 1.01,-0.01 2.02,-0.01 3.03,-0.02 1.01,-0.01 2.02,-0.01 3.03,-0.02 1.01,0 2.02,-0.01 3.03,-0.01 1.01,0 2.02,-0.01 3.03,-0.01 1.01,0 2.02,-0.01 3.03,-0.01 1.01,0 2.02,0 3.03,0 1.01,0 2.02,0 3.03,0 1.01,0 2.03,0 3.04,0 1.01,0 2.02,0.01 3.03,0.01 1.01,0.01 2.02,0.01 3.03,0.02 1.01,0.01 2.02,0.01 3.03,0.02 1.01,0.01 2.02,0.02 3.03,0.03 1.01,0.01 2.02,0.01 3.03,0.02 1.01,0.01 2.02,0.02 3.03,0.03 1.01,0.01 2.02,0.01 3.03,0.01 1.01,0 2.02,0.01 3.03,0.01 1.01,0 2.02,0 3.03,0 1.01,0 2.02,-0.01 3.03,-0.01 1.01,0 2.02,-0.01 3.03,-0.01 1.01,0 2.03,-0.01 3.04,-0.01 1.01,0 2.02,0 3.03,0 1.01,0 2.02,0 3.03,0 1.01,0 2.02,0.01 3.03,0.02 1.01,0 2.02,0.01 3.03,0.01 1.01,0.01 2.02,0.01 3.03,0.02 1.01,0 2.02,0.01 3.03,0.01 1.01,0 2.02,0.01 3.03,0.01 1.01,0 2.02,0 3.03,0 1.01,0 2.02,0 3.03,0 1.01,0 2.02,0 3.03,0 1.01,0 2.03,0 3.04,0 1.01,0 2.02,0 3.03,0 1.01,0 2.02,0 3.03,0 1.01,0 2.02,-0.01 3.03,-0.01 1.01,0 2.02,0 3.03,0 1.01,0 2.02,-0.01 3.03,-0.01 1.01,0 2.02,0 3.03,0 1.01,0 2.02,0 3.03,0 1.01,0 2.02,0 3.03,0 1.01,0 2.02,0.01 3.03,0.01 1.01,0 2.02,0 3.03,0 1.01,0 2.03,0 3.04,0 1.01,0 2.02,-0.01 3.03,-0.01 1.01,0 2.02,-0.01 3.03,-0.01 1.01,-0.01 2.02,-0.01 3.03,-0.02 1.01,0 2.02,-0.01 3.03,-0.01 1.01,0 2.02,0 3.03,0 1.01,0 2.02,0 3.03,0 1.01,0 2.02,0.01 3.03,0.01 1.01,0.01 2.02,0.01 3.03,0.02 1.01,0 2.02,0.01 3.03,0.01 1.01,0 2.02,0.01 3.03,0.01 q 1.01,0.01 3.04,0.02 v 0.03"
               style="vector-effect:none;fill:#c0c0c0;fill-opacity:1;stroke:#000000;stroke-width:1px;stroke-opacity:1"
               id="path159" />
            <path
               class="meanline"
               style="vector-effect:none;fill:none;stroke:#000000;stroke-width:1px;stroke-dasharray:2px, 1px;stroke-opacity:1"
               d="M 69.88,376.16571 V 378.57"
               id="path161" />
          </g>
          <g
             class="trace violins"
             style="opacity:0.8"
             id="g169">
            <path
               class="violin"
               d="m 24.1,342.08 v -1.39 q 4.43,-0.26 6.64,-0.38 c 2.21,-0.12 4.43,-0.25 6.64,-0.36 2.21,-0.11 4.43,-0.22 6.64,-0.32 2.21,-0.1 4.43,-0.18 6.64,-0.26 2.21,-0.08 4.43,-0.14 6.64,-0.2 2.21,-0.06 4.43,-0.1 6.64,-0.14 2.21,-0.04 4.43,-0.07 6.64,-0.09 2.21,-0.02 4.43,-0.02 6.64,-0.02 2.21,0 4.43,0.01 6.64,0.02 2.21,0.01 4.43,0.04 6.64,0.07 2.21,0.03 4.43,0.07 6.64,0.11 2.21,0.04 4.43,0.1 6.64,0.15 2.21,0.06 4.43,0.12 6.64,0.18 2.21,0.06 4.43,0.12 6.64,0.18 2.21,0.06 4.43,0.12 6.64,0.18 2.21,0.05 4.43,0.11 6.64,0.15 2.21,0.04 4.43,0.07 6.64,0.09 2.21,0.02 4.43,0.02 6.64,0.01 2.21,-0.01 4.43,-0.04 6.64,-0.08 2.21,-0.04 4.43,-0.1 6.64,-0.18 2.21,-0.08 4.43,-0.19 6.64,-0.31 2.21,-0.12 4.43,-0.27 6.64,-0.43 2.21,-0.16 4.43,-0.35 6.64,-0.55 2.21,-0.2 4.43,-0.42 6.64,-0.65 2.21,-0.23 4.43,-0.47 6.64,-0.71 2.21,-0.24 4.43,-0.5 6.64,-0.74 2.21,-0.24 4.43,-0.47 6.64,-0.7 2.21,-0.22 4.43,-0.45 6.64,-0.65 2.21,-0.2 4.43,-0.38 6.64,-0.55 2.21,-0.17 4.43,-0.32 6.64,-0.47 2.21,-0.14 4.43,-0.28 6.64,-0.4 2.21,-0.12 4.43,-0.23 6.64,-0.32 2.21,-0.09 4.43,-0.18 6.64,-0.24 2.21,-0.06 4.43,-0.11 6.64,-0.12 2.21,-0.01 4.42,-0.01 6.63,0.03 2.21,0.04 4.43,0.12 6.64,0.23 2.21,0.11 4.43,0.25 6.64,0.43 2.21,0.18 4.43,0.4 6.64,0.63 2.21,0.24 4.43,0.51 6.64,0.78 2.21,0.27 4.43,0.57 6.64,0.86 2.21,0.28 4.43,0.58 6.64,0.85 2.21,0.27 4.43,0.54 6.64,0.78 2.21,0.24 4.43,0.47 6.64,0.67 2.21,0.2 4.43,0.38 6.64,0.54 2.21,0.16 4.43,0.3 6.64,0.43 2.21,0.13 4.43,0.25 6.64,0.36 2.21,0.11 4.43,0.2 6.64,0.3 2.21,0.1 4.43,0.19 6.64,0.28 2.21,0.09 4.43,0.17 6.64,0.25 2.21,0.08 4.43,0.15 6.64,0.22 2.21,0.07 4.43,0.14 6.64,0.2 2.21,0.06 4.43,0.11 6.64,0.16 2.21,0.05 4.43,0.08 6.64,0.12 2.21,0.04 4.43,0.07 6.64,0.1 2.21,0.03 4.43,0.05 6.64,0.07 2.21,0.02 4.43,0.04 6.64,0.06 2.21,0.02 4.43,0.03 6.64,0.05 2.21,0.01 4.43,0.03 6.64,0.04 2.21,0.02 4.43,0.03 6.64,0.05 2.21,0.02 4.43,0.03 6.64,0.05 2.21,0.02 4.43,0.04 6.64,0.06 2.21,0.02 4.43,0.05 6.64,0.08 2.21,0.03 4.43,0.05 6.64,0.08 q 2.21,0.03 6.64,0.08 v 0.28"
               style="vector-effect:none;fill:#669c35;fill-opacity:1;stroke:#000000;stroke-width:1px;stroke-opacity:1"
               id="path165" />
            <path
               class="meanline"
               style="vector-effect:none;fill:none;stroke:#000000;stroke-width:1px;stroke-dasharray:2px, 1px;stroke-opacity:1"
               d="M 218.09,334.40311 V 342.08"
               id="path167" />
          </g>
          <g
             class="trace violins"
             style="opacity:0.8"
             id="g175">
            <path
               class="violin"
               d="m 26.08,305.59 v -6.27 q 8.29,-0.95 12.44,-1.34 c 4.14,-0.39 8.29,-0.75 12.44,-1 4.14,-0.25 8.29,-0.43 12.44,-0.51 4.15,-0.08 8.29,-0.06 12.44,0.01 4.15,0.07 8.29,0.24 12.44,0.43 4.15,0.19 8.29,0.45 12.44,0.7 4.15,0.25 8.29,0.54 12.44,0.79 4.15,0.25 8.29,0.52 12.44,0.73 4.15,0.21 8.29,0.4 12.44,0.55 4.15,0.15 8.29,0.26 12.44,0.34 4.15,0.08 8.29,0.13 12.44,0.16 4.15,0.03 8.29,0.02 12.44,0.02 4.15,0 8.29,-0.01 12.44,-0.02 4.15,0 8.29,-0.01 12.44,-0.01 4.15,0 8.29,0.02 12.44,0.04 4.15,0.02 8.29,0.05 12.44,0.08 4.15,0.03 8.29,0.07 12.44,0.11 4.15,0.04 8.29,0.09 12.44,0.13 4.15,0.04 8.29,0.07 12.44,0.11 4.15,0.04 8.29,0.09 12.44,0.13 4.15,0.04 8.29,0.08 12.44,0.13 4.15,0.05 8.29,0.11 12.44,0.16 4.15,0.05 8.29,0.11 12.44,0.16 4.15,0.05 8.29,0.11 12.44,0.16 4.15,0.05 8.29,0.1 12.44,0.14 4.15,0.04 8.29,0.07 12.44,0.1 4.15,0.03 8.29,0.06 12.44,0.09 4.15,0.03 8.29,0.06 12.44,0.1 4.15,0.04 8.3,0.08 12.45,0.14 4.15,0.06 8.29,0.13 12.44,0.21 4.15,0.09 8.29,0.19 12.44,0.3 4.15,0.11 8.29,0.24 12.44,0.38 4.15,0.14 8.29,0.3 12.44,0.46 q 4.15,0.16 12.44,0.49 v 1.8"
               style="vector-effect:none;fill:#a77b00;fill-opacity:1;stroke:#000000;stroke-width:1px;stroke-opacity:1"
               id="path171" />
            <path
               class="meanline"
               style="vector-effect:none;fill:none;stroke:#000000;stroke-width:1px;stroke-dasharray:2px, 1px;stroke-opacity:1"
               d="M 188.8,300.1792 V 305.59"
               id="path173" />
          </g>
          <g
             class="trace violins"
             style="opacity:0.8"
             id="g181">
            <path
               class="violin"
               d="m 24.56,269.11 v -4.64 q 7.86,-0.82 11.79,-1.2 c 3.93,-0.38 7.85,-0.75 11.78,-1.07 3.93,-0.32 7.86,-0.62 11.79,-0.87 3.93,-0.25 7.86,-0.45 11.79,-0.62 3.93,-0.17 7.86,-0.29 11.79,-0.4 3.93,-0.1 7.85,-0.18 11.78,-0.23 3.93,-0.06 7.86,-0.09 11.79,-0.1 3.93,-0.01 7.86,-0.01 11.79,0.01 3.93,0.02 7.85,0.05 11.78,0.09 3.93,0.04 7.86,0.1 11.79,0.15 3.93,0.06 7.86,0.12 11.79,0.18 3.93,0.06 7.85,0.14 11.78,0.19 3.93,0.06 7.86,0.1 11.79,0.14 3.93,0.04 7.86,0.07 11.79,0.1 3.93,0.03 7.86,0.04 11.79,0.06 3.93,0.01 7.85,0.02 11.78,0.03 3.93,0.01 7.86,0.03 11.79,0.05 3.93,0.02 7.86,0.04 11.79,0.07 3.93,0.02 7.85,0.05 11.78,0.08 3.93,0.03 7.86,0.06 11.79,0.09 3.93,0.03 7.86,0.05 11.79,0.07 3.93,0.02 7.86,0.04 11.79,0.06 3.93,0.02 7.85,0.03 11.78,0.07 3.93,0.04 7.86,0.09 11.79,0.16 3.93,0.07 7.86,0.16 11.79,0.28 3.93,0.12 7.85,0.26 11.78,0.42 3.93,0.16 7.86,0.35 11.79,0.54 3.93,0.19 7.86,0.41 11.79,0.62 3.93,0.21 7.86,0.42 11.79,0.62 3.93,0.2 7.85,0.39 11.78,0.57 3.93,0.18 7.86,0.34 11.79,0.49 3.93,0.15 7.86,0.29 11.79,0.43 3.93,0.14 7.85,0.26 11.78,0.39 3.93,0.13 7.86,0.25 11.79,0.39 3.93,0.14 7.86,0.28 11.79,0.43 q 3.93,0.15 11.79,0.46 v 1.89"
               style="vector-effect:none;fill:#b51a00;fill-opacity:1;stroke:#000000;stroke-width:1px;stroke-opacity:1"
               id="path177" />
            <path
               class="meanline"
               style="vector-effect:none;fill:none;stroke:#000000;stroke-width:1px;stroke-dasharray:2px, 1px;stroke-opacity:1"
               d="M 206.82,260.91388 V 269.11"
               id="path179" />
          </g>
          <g
             class="trace violins"
             style="opacity:0.8"
             id="g187">
            <path
               class="violin"
               d="m 24.41,232.62 v -3.53 q 1.75,-0.8 2.62,-1.21 c 0.88,-0.41 1.75,-0.85 2.63,-1.25 0.87,-0.4 1.74,-0.81 2.62,-1.17 0.87,-0.35 1.75,-0.7 2.63,-0.97 0.87,-0.27 1.74,-0.5 2.62,-0.67 0.87,-0.17 1.75,-0.28 2.63,-0.33 0.87,-0.05 1.75,-0.03 2.62,0.03 0.88,0.06 1.76,0.18 2.63,0.32 0.88,0.14 1.76,0.33 2.63,0.52 0.88,0.19 1.75,0.41 2.62,0.61 0.88,0.2 1.75,0.42 2.63,0.61 0.87,0.19 1.74,0.37 2.62,0.53 0.87,0.16 1.75,0.31 2.63,0.45 0.87,0.14 1.75,0.27 2.62,0.4 0.88,0.13 1.75,0.26 2.63,0.4 0.87,0.14 1.75,0.3 2.62,0.46 0.88,0.16 1.75,0.34 2.63,0.52 0.87,0.18 1.75,0.37 2.62,0.55 0.88,0.18 1.75,0.37 2.63,0.53 0.87,0.16 1.74,0.32 2.62,0.45 0.87,0.13 1.75,0.25 2.63,0.35 0.87,0.1 1.75,0.19 2.62,0.26 0.88,0.08 1.75,0.13 2.63,0.19 0.87,0.05 1.75,0.1 2.62,0.14 0.88,0.04 1.75,0.08 2.63,0.12 0.88,0.03 1.75,0.06 2.63,0.09 0.87,0.03 1.75,0.06 2.62,0.08 0.88,0.02 1.75,0.03 2.63,0.05 0.87,0.02 1.75,0.03 2.62,0.05 0.88,0.02 1.75,0.03 2.63,0.05 0.87,0.02 1.75,0.03 2.62,0.05 0.88,0.02 1.75,0.05 2.63,0.07 0.87,0.02 1.75,0.05 2.62,0.07 0.88,0.02 1.75,0.05 2.63,0.07 0.87,0.02 1.75,0.05 2.62,0.07 0.88,0.02 1.75,0.04 2.63,0.06 0.87,0.02 1.75,0.05 2.62,0.07 0.88,0.02 1.75,0.04 2.63,0.07 0.87,0.02 1.75,0.05 2.62,0.08 0.88,0.03 1.75,0.06 2.63,0.09 0.87,0.03 1.75,0.07 2.62,0.1 0.88,0.03 1.75,0.05 2.63,0.08 0.87,0.03 1.75,0.06 2.62,0.08 0.88,0.02 1.75,0.04 2.63,0.05 0.88,0.01 1.75,0.02 2.63,0.02 0.87,0 1.75,0 2.62,0 0.88,0 1.75,0 2.63,0 0.87,0 1.75,0 2.62,0 0.88,0 1.75,0 2.63,0 0.87,0 1.75,0.01 2.62,0.02 0.88,0.01 1.75,0.02 2.63,0.03 0.87,0.01 1.75,0.03 2.62,0.04 0.88,0.02 1.75,0.03 2.63,0.05 0.87,0.02 1.75,0.04 2.62,0.05 0.88,0.02 1.75,0.03 2.63,0.04 0.87,0.01 1.75,0.03 2.62,0.04 0.88,0.01 1.75,0.01 2.63,0.02 0.87,0.01 1.75,0.02 2.62,0.02 0.88,0.01 1.75,0.01 2.63,0.01 0.87,0 1.75,0.01 2.62,0.01 0.88,0 1.75,0 2.63,0 0.88,0 1.75,0 2.63,0 0.87,0 1.75,-0.01 2.62,-0.01 0.88,0 1.75,0 2.63,-0.01 0.87,0 1.75,-0.01 2.62,-0.02 0.88,-0.01 1.75,-0.01 2.63,-0.02 0.87,0 1.75,-0.01 2.62,-0.01 0.88,0 1.75,-0.01 2.63,-0.01 0.87,0 1.75,0 2.62,0 0.88,0 1.75,0.01 2.63,0.01 0.87,0 1.75,0.01 2.62,0.01 0.88,0.01 1.75,0.01 2.63,0.02 0.87,0 1.75,0.01 2.62,0.01 0.88,0 1.75,0.01 2.63,0.01 0.87,0 1.75,0 2.62,0 0.88,0 1.75,-0.01 2.63,-0.01 0.87,0 1.75,-0.01 2.62,-0.01 0.88,-0.01 1.75,-0.01 2.63,-0.02 0.87,-0.01 1.75,-0.02 2.62,-0.02 0.88,0 1.75,0 2.63,0 0.88,0 1.75,0 2.63,0 0.87,0 1.75,0.01 2.62,0.01 0.88,0.01 1.75,0.01 2.63,0.02 0.87,0 1.75,0.01 2.62,0.01 0.88,0.01 1.75,0.01 2.63,0.02 0.87,0 1.75,0.01 2.62,0.01 0.88,0 1.75,0.01 2.63,0.01 0.87,0 1.75,0 2.62,0 0.88,0 1.75,0.01 2.63,0.01 0.87,0 1.75,0 2.62,0 0.88,0 1.75,0 2.63,0 0.87,0 1.75,0 2.62,0 0.88,0 1.75,-0.01 2.63,-0.01 0.87,0 1.75,0 2.62,0 0.88,0 1.75,-0.01 2.63,-0.01 0.87,0 1.75,-0.01 2.62,-0.01 0.88,0 1.75,-0.01 2.63,-0.01 0.88,-0.01 1.75,-0.01 2.63,-0.02 0.87,-0.01 1.75,-0.02 2.62,-0.02 0.88,-0.01 1.75,-0.01 2.63,-0.01 q 0.87,0 2.62,0 v 0.09"
               style="vector-effect:none;fill:#36acab;fill-opacity:1;stroke:#000000;stroke-width:1px;stroke-opacity:1"
               id="path183" />
            <path
               class="meanline"
               style="vector-effect:none;fill:none;stroke:#000000;stroke-width:1px;stroke-dasharray:2px, 1px;stroke-opacity:1"
               d="M 60.52,226.86411 V 232.62"
               id="path185" />
          </g>
          <g
             class="trace violins"
             style="opacity:0.8"
             id="g193">
            <path
               class="violin"
               d="m 24.41,196.13 v -7.8 q 10.46,-0.76 15.69,-0.98 c 5.23,-0.22 10.45,-0.33 15.68,-0.34 5.23,-0.01 10.46,0.11 15.69,0.28 5.23,0.17 10.46,0.46 15.69,0.74 5.23,0.28 10.46,0.64 15.69,0.95 5.23,0.31 10.46,0.65 15.69,0.93 5.23,0.28 10.45,0.53 15.68,0.73 5.23,0.21 10.46,0.37 15.69,0.5 5.23,0.13 10.46,0.21 15.69,0.29 5.23,0.07 10.46,0.11 15.69,0.16 5.23,0.04 10.46,0.07 15.69,0.11 5.23,0.04 10.45,0.08 15.68,0.12 5.23,0.04 10.46,0.09 15.69,0.13 5.23,0.04 10.46,0.09 15.69,0.13 5.23,0.04 10.46,0.08 15.69,0.11 5.23,0.03 10.46,0.05 15.69,0.07 5.23,0.02 10.45,0.04 15.68,0.05 5.23,0.02 10.46,0.03 15.69,0.04 5.23,0.02 10.46,0.03 15.69,0.05 5.23,0.02 10.46,0.04 15.69,0.06 5.23,0.02 10.46,0.05 15.69,0.08 5.23,0.03 10.46,0.07 15.69,0.11 5.23,0.04 10.45,0.08 15.68,0.14 5.23,0.06 10.46,0.13 15.69,0.22 5.23,0.09 10.46,0.18 15.69,0.3 5.23,0.12 10.46,0.26 15.69,0.41 q 5.23,0.15 15.69,0.47 v 1.94"
               style="vector-effect:none;fill:#37aabb;fill-opacity:1;stroke:#000000;stroke-width:1px;stroke-opacity:1"
               id="path189" />
            <path
               class="meanline"
               style="vector-effect:none;fill:none;stroke:#000000;stroke-width:1px;stroke-dasharray:2px, 1px;stroke-opacity:1"
               d="M 172.02,191.50296 V 196.13"
               id="path191" />
          </g>
          <g
             class="trace violins"
             style="opacity:0.8"
             id="g199">
            <path
               class="violin"
               d="m 31.53,159.64 v -0.85 q 8.44,-0.15 12.66,-0.22 c 4.22,-0.07 8.43,-0.15 12.65,-0.22 4.22,-0.07 8.43,-0.13 12.65,-0.19 4.22,-0.06 8.43,-0.11 12.65,-0.15 4.22,-0.04 8.43,-0.07 12.65,-0.09 4.22,-0.02 8.43,-0.04 12.65,-0.05 4.22,-0.01 8.44,-0.01 12.66,-0.01 4.22,0 8.43,0 12.65,-0.01 4.22,-0.01 8.43,-0.01 12.65,-0.03 4.22,-0.02 8.43,-0.04 12.65,-0.07 4.22,-0.03 8.43,-0.06 12.65,-0.1 4.22,-0.04 8.44,-0.09 12.66,-0.15 4.22,-0.05 8.43,-0.12 12.65,-0.18 4.22,-0.07 8.43,-0.14 12.65,-0.21 4.22,-0.08 8.43,-0.16 12.65,-0.24 4.22,-0.08 8.43,-0.17 12.65,-0.26 4.22,-0.09 8.44,-0.19 12.66,-0.3 4.22,-0.11 8.43,-0.22 12.65,-0.36 4.22,-0.14 8.43,-0.29 12.65,-0.46 4.22,-0.17 8.43,-0.37 12.65,-0.58 4.22,-0.21 8.43,-0.45 12.65,-0.7 4.22,-0.25 8.44,-0.53 12.66,-0.79 4.22,-0.26 8.43,-0.53 12.65,-0.79 4.22,-0.25 8.43,-0.52 12.65,-0.74 4.22,-0.22 8.43,-0.43 12.65,-0.6 4.22,-0.17 8.43,-0.32 12.65,-0.44 4.22,-0.12 8.44,-0.21 12.66,-0.26 4.22,-0.05 8.43,-0.08 12.65,-0.07 4.22,0.01 8.43,0.05 12.65,0.14 4.22,0.09 8.43,0.21 12.65,0.39 4.22,0.18 8.43,0.42 12.65,0.7 4.22,0.28 8.43,0.62 12.65,0.99 q 4.22,0.37 12.66,1.23 v 5.67"
               style="vector-effect:none;fill:#39a8cd;fill-opacity:1;stroke:#000000;stroke-width:1px;stroke-opacity:1"
               id="path195" />
            <path
               class="meanline"
               style="vector-effect:none;fill:none;stroke:#000000;stroke-width:1px;stroke-dasharray:2px, 1px;stroke-opacity:1"
               d="M 323.45,152.57452 V 159.64"
               id="path197" />
          </g>
          <g
             class="trace violins"
             style="opacity:0.8"
             id="g205">
            <path
               class="violin"
               d="m 24.86,123.15 v -6.47 q 11.55,-0.52 17.32,-0.67 c 5.77,-0.15 11.54,-0.22 17.31,-0.23 5.77,-0.01 11.55,0.06 17.32,0.15 5.77,0.08 11.54,0.24 17.31,0.36 5.77,0.12 11.54,0.28 17.31,0.38 5.77,0.11 11.55,0.2 17.32,0.25 5.77,0.05 11.54,0.06 17.31,0.04 5.77,-0.02 11.55,-0.09 17.32,-0.18 5.77,-0.09 11.54,-0.22 17.31,-0.35 5.77,-0.13 11.55,-0.29 17.32,-0.44 5.77,-0.15 11.54,-0.31 17.31,-0.45 5.77,-0.14 11.54,-0.28 17.31,-0.4 5.77,-0.12 11.55,-0.23 17.32,-0.34 5.77,-0.1 11.54,-0.2 17.31,-0.29 5.77,-0.09 11.55,-0.16 17.32,-0.23 5.77,-0.07 11.54,-0.14 17.31,-0.18 5.77,-0.04 11.55,-0.08 17.32,-0.07 5.77,0.01 11.54,0.03 17.31,0.11 5.77,0.08 11.54,0.19 17.31,0.35 5.77,0.16 11.55,0.37 17.32,0.62 5.77,0.25 11.54,0.55 17.31,0.87 5.77,0.32 11.55,0.69 17.32,1.06 5.77,0.37 11.54,0.77 17.31,1.15 q 5.77,0.38 17.32,1.14 v 3.82"
               style="vector-effect:none;fill:#583400;fill-opacity:1;stroke:#000000;stroke-width:1px;stroke-opacity:1"
               id="path201" />
            <path
               class="meanline"
               style="vector-effect:none;fill:none;stroke:#000000;stroke-width:1px;stroke-dasharray:2px, 1px;stroke-opacity:1"
               d="M 221.67,115.38776 V 123.15"
               id="path203" />
          </g>
          <g
             class="trace violins"
             style="opacity:0.8"
             id="g211">
            <path
               class="violin"
               d="m 27.74,86.66 v -8.15 q 17.2,-0.58 25.8,-0.74 c 8.6,-0.16 17.19,-0.22 25.79,-0.23 8.6,-0.01 17.19,0.08 25.79,0.18 8.6,0.11 17.19,0.28 25.79,0.45 8.6,0.17 17.2,0.37 25.8,0.55 8.6,0.18 17.19,0.37 25.79,0.53 8.6,0.16 17.19,0.32 25.79,0.43 8.6,0.11 17.19,0.2 25.79,0.25 8.6,0.05 17.2,0.07 25.8,0.06 8.6,-0.01 17.19,-0.08 25.79,-0.14 8.6,-0.07 17.19,-0.17 25.79,-0.25 8.6,-0.08 17.2,-0.19 25.8,-0.23 8.6,-0.04 17.19,-0.08 25.79,-0.03 8.6,0.05 17.19,0.15 25.79,0.33 q 8.6,0.18 25.79,0.74 v 6.25"
               style="vector-effect:none;fill:#666100;fill-opacity:1;stroke:#000000;stroke-width:1px;stroke-opacity:1"
               id="path207" />
            <path
               class="meanline"
               style="vector-effect:none;fill:none;stroke:#000000;stroke-width:1px;stroke-dasharray:2px, 1px;stroke-opacity:1"
               d="M 201.4,79.581711 V 86.66"
               id="path209" />
          </g>
          <g
             class="trace violins"
             style="opacity:0.8"
             id="g217">
            <path
               class="violin"
               d="M 30.47,50.17 V 46.2 q 15.39,-0.63 23.08,-0.93 c 7.69,-0.3 15.39,-0.61 23.08,-0.89 7.69,-0.28 15.39,-0.56 23.08,-0.81 7.69,-0.25 15.39,-0.49 23.08,-0.7 7.69,-0.21 15.39,-0.4 23.08,-0.56 7.69,-0.16 15.39,-0.29 23.08,-0.4 7.69,-0.11 15.39,-0.18 23.08,-0.25 7.69,-0.06 15.39,-0.1 23.08,-0.14 7.69,-0.04 15.39,-0.06 23.08,-0.09 7.69,-0.03 15.38,-0.05 23.07,-0.09 7.69,-0.04 15.39,-0.09 23.08,-0.13 7.69,-0.04 15.39,-0.09 23.08,-0.12 7.69,-0.03 15.39,-0.06 23.08,-0.04 7.69,0.02 15.39,0.05 23.08,0.14 7.69,0.09 15.39,0.23 23.08,0.42 7.69,0.2 15.39,0.45 23.08,0.75 q 7.69,0.3 23.08,1.05 v 6.76"
               style="vector-effect:none;fill:#001e57;fill-opacity:1;stroke:#000000;stroke-width:1px;stroke-opacity:1"
               id="path213" />
            <path
               class="meanline"
               style="vector-effect:none;fill:none;stroke:#000000;stroke-width:1px;stroke-dasharray:2px, 1px;stroke-opacity:1"
               d="M 252.07,41.378838 V 50.17"
               id="path215" />
          </g>
        </g>
      </g>
      <g
         class="overplot"
         id="g223" />
      <path
         class="xlines-above crisp"
         style="fill:none;stroke:#444444;stroke-width:1px;stroke-opacity:1"
         d="M 98,922.5 H 573"
         id="path225" />
      <path
         class="ylines-above crisp"
         style="fill:none;stroke:#444444;stroke-width:1px;stroke-opacity:1"
         d="M 98.5,100 V 922"
         id="path227" />
      <g
         class="overlines-above"
         id="g229" />
      <g
         class="xaxislayer-above"
         id="g321">
        <path
           class="xtick ticks crisp"
           style="stroke:#444444;stroke-width:1px;stroke-opacity:1"
           d="m 0,923 v 5"
           transform="translate(123.65)"
           id="path231" />
        <path
           class="xtick ticks crisp"
           style="stroke:#444444;stroke-width:1px;stroke-opacity:1"
           d="m 0,923 v 5"
           transform="translate(153.97)"
           id="path233" />
        <path
           class="xtick ticks crisp"
           style="stroke:#444444;stroke-width:1px;stroke-opacity:1"
           d="m 0,923 v 5"
           transform="translate(184.29)"
           id="path235" />
        <path
           class="xtick ticks crisp"
           style="stroke:#444444;stroke-width:1px;stroke-opacity:1"
           d="m 0,923 v 5"
           transform="translate(214.61)"
           id="path237" />
        <path
           class="xtick ticks crisp"
           style="stroke:#444444;stroke-width:1px;stroke-opacity:1"
           d="m 0,923 v 5"
           transform="translate(244.93)"
           id="path239" />
        <path
           class="xtick ticks crisp"
           style="stroke:#444444;stroke-width:1px;stroke-opacity:1"
           d="m 0,923 v 5"
           transform="translate(275.25)"
           id="path241" />
        <path
           class="xtick ticks crisp"
           style="stroke:#444444;stroke-width:1px;stroke-opacity:1"
           d="m 0,923 v 5"
           transform="translate(305.57)"
           id="path243" />
        <path
           class="xtick ticks crisp"
           style="stroke:#444444;stroke-width:1px;stroke-opacity:1"
           d="m 0,923 v 5"
           transform="translate(335.89)"
           id="path245" />
        <path
           class="xtick ticks crisp"
           style="stroke:#444444;stroke-width:1px;stroke-opacity:1"
           d="m 0,923 v 5"
           transform="translate(366.21)"
           id="path247" />
        <path
           class="xtick ticks crisp"
           style="stroke:#444444;stroke-width:1px;stroke-opacity:1"
           d="m 0,923 v 5"
           transform="translate(396.53)"
           id="path249" />
        <path
           class="xtick ticks crisp"
           style="stroke:#444444;stroke-width:1px;stroke-opacity:1"
           d="m 0,923 v 5"
           transform="translate(426.86)"
           id="path251" />
        <path
           class="xtick ticks crisp"
           style="stroke:#444444;stroke-width:1px;stroke-opacity:1"
           d="m 0,923 v 5"
           transform="translate(457.18)"
           id="path253" />
        <path
           class="xtick ticks crisp"
           style="stroke:#444444;stroke-width:1px;stroke-opacity:1"
           d="m 0,923 v 5"
           transform="translate(487.5)"
           id="path255" />
        <path
           class="xtick ticks crisp"
           style="stroke:#444444;stroke-width:1px;stroke-opacity:1"
           d="m 0,923 v 5"
           transform="translate(517.82)"
           id="path257" />
        <path
           class="xtick ticks crisp"
           style="stroke:#444444;stroke-width:1px;stroke-opacity:1"
           d="m 0,923 v 5"
           transform="translate(548.14)"
           id="path259" />
        <g
           class="xtick"
           id="g263">
          <text
             text-anchor="start"
             x="0"
             y="942.40002"
             style="font-size:12px;font-family:'Open Sans', verdana, arial, sans-serif;white-space:pre;opacity:1;fill:#444444;fill-opacity:1"
             transform="rotate(45,61.825,1085.6588)"
             id="text261">200</text>
        </g>
        <g
           class="xtick"
           id="g267">
          <text
             text-anchor="start"
             x="0"
             y="942.40002"
             style="font-size:12px;font-family:'Open Sans', verdana, arial, sans-serif;white-space:pre;opacity:1;fill:#444444;fill-opacity:1"
             transform="rotate(45,76.985,1122.2582)"
             id="text265">400</text>
        </g>
        <g
           class="xtick"
           id="g271">
          <text
             text-anchor="start"
             x="0"
             y="942.40002"
             style="font-size:12px;font-family:'Open Sans', verdana, arial, sans-serif;white-space:pre;opacity:1;fill:#444444;fill-opacity:1"
             transform="rotate(45,92.145,1158.8577)"
             id="text269">600</text>
        </g>
        <g
           class="xtick"
           id="g275">
          <text
             text-anchor="start"
             x="0"
             y="942.40002"
             style="font-size:12px;font-family:'Open Sans', verdana, arial, sans-serif;white-space:pre;opacity:1;fill:#444444;fill-opacity:1"
             transform="rotate(45,107.305,1195.4572)"
             id="text273">800</text>
        </g>
        <g
           class="xtick"
           id="g279">
          <text
             text-anchor="start"
             x="0"
             y="942.40002"
             style="font-size:12px;font-family:'Open Sans', verdana, arial, sans-serif;white-space:pre;opacity:1;fill:#444444;fill-opacity:1"
             transform="rotate(45,122.465,1232.0567)"
             id="text277">1000</text>
        </g>
        <g
           class="xtick"
           id="g283">
          <text
             text-anchor="start"
             x="0"
             y="942.40002"
             style="font-size:12px;font-family:'Open Sans', verdana, arial, sans-serif;white-space:pre;opacity:1;fill:#444444;fill-opacity:1"
             transform="rotate(45,137.625,1268.6561)"
             id="text281">1200</text>
        </g>
        <g
           class="xtick"
           id="g287">
          <text
             text-anchor="start"
             x="0"
             y="942.40002"
             style="font-size:12px;font-family:'Open Sans', verdana, arial, sans-serif;white-space:pre;opacity:1;fill:#444444;fill-opacity:1"
             transform="rotate(45,152.785,1305.2556)"
             id="text285">1400</text>
        </g>
        <g
           class="xtick"
           id="g291">
          <text
             text-anchor="start"
             x="0"
             y="942.40002"
             style="font-size:12px;font-family:'Open Sans', verdana, arial, sans-serif;white-space:pre;opacity:1;fill:#444444;fill-opacity:1"
             transform="rotate(45,167.945,1341.8551)"
             id="text289">1600</text>
        </g>
        <g
           class="xtick"
           id="g295">
          <text
             text-anchor="start"
             x="0"
             y="942.40002"
             style="font-size:12px;font-family:'Open Sans', verdana, arial, sans-serif;white-space:pre;opacity:1;fill:#444444;fill-opacity:1"
             transform="rotate(45,183.105,1378.4546)"
             id="text293">1800</text>
        </g>
        <g
           class="xtick"
           id="g299">
          <text
             text-anchor="start"
             x="0"
             y="942.40002"
             style="font-size:12px;font-family:'Open Sans', verdana, arial, sans-serif;white-space:pre;opacity:1;fill:#444444;fill-opacity:1"
             transform="rotate(45,198.265,1415.0541)"
             id="text297">2000</text>
        </g>
        <g
           class="xtick"
           id="g303">
          <text
             text-anchor="start"
             x="0"
             y="942.40002"
             style="font-size:12px;font-family:'Open Sans', verdana, arial, sans-serif;white-space:pre;opacity:1;fill:#444444;fill-opacity:1"
             transform="rotate(45,213.43,1451.6656)"
             id="text301">2200</text>
        </g>
        <g
           class="xtick"
           id="g307">
          <text
             text-anchor="start"
             x="0"
             y="942.40002"
             style="font-size:12px;font-family:'Open Sans', verdana, arial, sans-serif;white-space:pre;opacity:1;fill:#444444;fill-opacity:1"
             transform="rotate(45,228.59,1488.2651)"
             id="text305">2400</text>
        </g>
        <g
           class="xtick"
           id="g311">
          <text
             text-anchor="start"
             x="0"
             y="942.40002"
             style="font-size:12px;font-family:'Open Sans', verdana, arial, sans-serif;white-space:pre;opacity:1;fill:#444444;fill-opacity:1"
             transform="rotate(45,243.75,1524.8646)"
             id="text309">2600</text>
        </g>
        <g
           class="xtick"
           id="g315">
          <text
             text-anchor="start"
             x="0"
             y="942.40002"
             style="font-size:12px;font-family:'Open Sans', verdana, arial, sans-serif;white-space:pre;opacity:1;fill:#444444;fill-opacity:1"
             transform="rotate(45,258.91,1561.464)"
             id="text313">2800</text>
        </g>
        <g
           class="xtick"
           id="g319">
          <text
             text-anchor="start"
             x="0"
             y="942.40002"
             style="font-size:12px;font-family:'Open Sans', verdana, arial, sans-serif;white-space:pre;opacity:1;fill:#444444;fill-opacity:1"
             transform="rotate(45,274.07,1598.0635)"
             id="text317">3000</text>
        </g>
      </g>
      <g
         class="yaxislayer-above"
         id="g449">
        <path
           class="ytick ticks crisp"
           style="stroke:#444444;stroke-width:1px;stroke-opacity:1"
           d="M 98,0 H 93"
           transform="translate(0,879.95)"
           id="path323" />
        <path
           class="ytick ticks crisp"
           style="stroke:#444444;stroke-width:1px;stroke-opacity:1"
           d="M 98,0 H 93"
           transform="translate(0,843.46)"
           id="path325" />
        <path
           class="ytick ticks crisp"
           style="stroke:#444444;stroke-width:1px;stroke-opacity:1"
           d="M 98,0 H 93"
           transform="translate(0,806.97)"
           id="path327" />
        <path
           class="ytick ticks crisp"
           style="stroke:#444444;stroke-width:1px;stroke-opacity:1"
           d="M 98,0 H 93"
           transform="translate(0,770.48)"
           id="path329" />
        <path
           class="ytick ticks crisp"
           style="stroke:#444444;stroke-width:1px;stroke-opacity:1"
           d="M 98,0 H 93"
           transform="translate(0,733.99)"
           id="path331" />
        <path
           class="ytick ticks crisp"
           style="stroke:#444444;stroke-width:1px;stroke-opacity:1"
           d="M 98,0 H 93"
           transform="translate(0,697.51)"
           id="path333" />
        <path
           class="ytick ticks crisp"
           style="stroke:#444444;stroke-width:1px;stroke-opacity:1"
           d="M 98,0 H 93"
           transform="translate(0,661.02)"
           id="path335" />
        <path
           class="ytick ticks crisp"
           style="stroke:#444444;stroke-width:1px;stroke-opacity:1"
           d="M 98,0 H 93"
           transform="translate(0,624.53)"
           id="path337" />
        <path
           class="ytick ticks crisp"
           style="stroke:#444444;stroke-width:1px;stroke-opacity:1"
           d="M 98,0 H 93"
           transform="translate(0,588.04)"
           id="path339" />
        <path
           class="ytick ticks crisp"
           style="stroke:#444444;stroke-width:1px;stroke-opacity:1"
           d="M 98,0 H 93"
           transform="translate(0,551.55)"
           id="path341" />
        <path
           class="ytick ticks crisp"
           style="stroke:#444444;stroke-width:1px;stroke-opacity:1"
           d="M 98,0 H 93"
           transform="translate(0,515.06)"
           id="path343" />
        <path
           class="ytick ticks crisp"
           style="stroke:#444444;stroke-width:1px;stroke-opacity:1"
           d="M 98,0 H 93"
           transform="translate(0,478.57)"
           id="path345" />
        <path
           class="ytick ticks crisp"
           style="stroke:#444444;stroke-width:1px;stroke-opacity:1"
           d="M 98,0 H 93"
           transform="translate(0,442.08)"
           id="path347" />
        <path
           class="ytick ticks crisp"
           style="stroke:#444444;stroke-width:1px;stroke-opacity:1"
           d="M 98,0 H 93"
           transform="translate(0,405.59)"
           id="path349" />
        <path
           class="ytick ticks crisp"
           style="stroke:#444444;stroke-width:1px;stroke-opacity:1"
           d="M 98,0 H 93"
           transform="translate(0,369.11)"
           id="path351" />
        <path
           class="ytick ticks crisp"
           style="stroke:#444444;stroke-width:1px;stroke-opacity:1"
           d="M 98,0 H 93"
           transform="translate(0,332.62)"
           id="path353" />
        <path
           class="ytick ticks crisp"
           style="stroke:#444444;stroke-width:1px;stroke-opacity:1"
           d="M 98,0 H 93"
           transform="translate(0,296.13)"
           id="path355" />
        <path
           class="ytick ticks crisp"
           style="stroke:#444444;stroke-width:1px;stroke-opacity:1"
           d="M 98,0 H 93"
           transform="translate(0,259.64)"
           id="path357" />
        <path
           class="ytick ticks crisp"
           style="stroke:#444444;stroke-width:1px;stroke-opacity:1"
           d="M 98,0 H 93"
           transform="translate(0,223.15)"
           id="path359" />
        <path
           class="ytick ticks crisp"
           style="stroke:#444444;stroke-width:1px;stroke-opacity:1"
           d="M 98,0 H 93"
           transform="translate(0,186.66)"
           id="path361" />
        <path
           class="ytick ticks crisp"
           style="stroke:#444444;stroke-width:1px;stroke-opacity:1"
           d="M 98,0 H 93"
           transform="translate(0,150.17)"
           id="path363" />
        <g
           class="ytick"
           id="g367">
          <text
             text-anchor="end"
             x="90.599998"
             y="4.1999998"
             style="font-size:12px;font-family:'Open Sans', verdana, arial, sans-serif;white-space:pre;opacity:1;fill:#444444;fill-opacity:1"
             transform="rotate(1,-50325.541,438.175)"
             id="text365">Endothelial (Emcn)  </text>
        </g>
        <g
           class="ytick"
           id="g371">
          <text
             text-anchor="end"
             x="90.599998"
             y="4.1999998"
             style="font-size:12px;font-family:'Open Sans', verdana, arial, sans-serif;white-space:pre;opacity:1;fill:#444444;fill-opacity:1"
             transform="rotate(1,-48234.871,419.93)"
             id="text369">Endothelial (Fam167b)  </text>
        </g>
        <g
           class="ytick"
           id="g375">
          <text
             text-anchor="end"
             x="90.599998"
             y="4.1999998"
             style="font-size:12px;font-family:'Open Sans', verdana, arial, sans-serif;white-space:pre;opacity:1;fill:#444444;fill-opacity:1"
             transform="rotate(1,-46144.201,401.685)"
             id="text373">Endothelial (Sema3g)  </text>
        </g>
        <g
           class="ytick"
           id="g379">
          <text
             text-anchor="end"
             x="90.599998"
             y="4.1999998"
             style="font-size:12px;font-family:'Open Sans', verdana, arial, sans-serif;white-space:pre;opacity:1;fill:#444444;fill-opacity:1"
             transform="rotate(1,-44053.532,383.44)"
             id="text377">T cell (Cd3d-Cd3e)  </text>
        </g>
        <g
           class="ytick"
           id="g383">
          <text
             text-anchor="end"
             x="90.599998"
             y="4.1999998"
             style="font-size:12px;font-family:'Open Sans', verdana, arial, sans-serif;white-space:pre;opacity:1;fill:#444444;fill-opacity:1"
             transform="rotate(1,-41962.862,365.195)"
             id="text381">T cell (Gm2682)  </text>
        </g>
        <g
           class="ytick"
           id="g387">
          <text
             text-anchor="end"
             x="90.599998"
             y="4.1999998"
             style="font-size:12px;font-family:'Open Sans', verdana, arial, sans-serif;white-space:pre;opacity:1;fill:#444444;fill-opacity:1"
             transform="rotate(1,-39872.765,346.955)"
             id="text385">Macrophage (Adgre-Fcrls)  </text>
        </g>
        <g
           class="ytick"
           id="g391">
          <text
             text-anchor="end"
             x="90.599998"
             y="4.1999998"
             style="font-size:12px;font-family:'Open Sans', verdana, arial, sans-serif;white-space:pre;opacity:1;fill:#444444;fill-opacity:1"
             transform="rotate(1,-37782.095,328.71)"
             id="text389">Macrophage(Cd300ld)  </text>
        </g>
        <g
           class="ytick"
           id="g395">
          <text
             text-anchor="end"
             x="90.599998"
             y="4.1999998"
             style="font-size:12px;font-family:'Open Sans', verdana, arial, sans-serif;white-space:pre;opacity:1;fill:#444444;fill-opacity:1"
             transform="rotate(1,-35691.425,310.465)"
             id="text393">Macrophage (Lyve1)  </text>
        </g>
        <g
           class="ytick"
           id="g399">
          <text
             text-anchor="end"
             x="90.599998"
             y="4.1999998"
             style="font-size:12px;font-family:'Open Sans', verdana, arial, sans-serif;white-space:pre;opacity:1;fill:#444444;fill-opacity:1"
             transform="rotate(1,-33600.755,292.22)"
             id="text397">Acinar cells  </text>
        </g>
        <g
           class="ytick"
           id="g403">
          <text
             text-anchor="end"
             x="90.599998"
             y="4.1999998"
             style="font-size:12px;font-family:'Open Sans', verdana, arial, sans-serif;white-space:pre;opacity:1;fill:#444444;fill-opacity:1"
             transform="rotate(1,-31510.085,273.975)"
             id="text401">Acinar cells (Amy2a1-Gm20629)  </text>
        </g>
        <g
           class="ytick"
           id="g407">
          <text
             text-anchor="end"
             x="90.599998"
             y="4.1999998"
             style="font-size:12px;font-family:'Open Sans', verdana, arial, sans-serif;white-space:pre;opacity:1;fill:#444444;fill-opacity:1"
             transform="rotate(1,-29419.415,255.73)"
             id="text405">Acinar to Ductal (Gm2663)  </text>
        </g>
        <g
           class="ytick"
           id="g411">
          <text
             text-anchor="end"
             x="90.599998"
             y="4.1999998"
             style="font-size:12px;font-family:'Open Sans', verdana, arial, sans-serif;white-space:pre;opacity:1;fill:#444444;fill-opacity:1"
             transform="rotate(1,-27328.745,237.485)"
             id="text409">Acinar to Ductal (ADM)  </text>
        </g>
        <g
           class="ytick"
           id="g415">
          <text
             text-anchor="end"
             x="90.599998"
             y="4.1999998"
             style="font-size:12px;font-family:'Open Sans', verdana, arial, sans-serif;white-space:pre;opacity:1;fill:#444444;fill-opacity:1"
             transform="rotate(1,-25238.075,219.24)"
             id="text413">B cell (Cd79a-Pax5)  </text>
        </g>
        <g
           class="ytick"
           id="g419">
          <text
             text-anchor="end"
             x="90.599998"
             y="4.1999998"
             style="font-size:12px;font-family:'Open Sans', verdana, arial, sans-serif;white-space:pre;opacity:1;fill:#444444;fill-opacity:1"
             transform="rotate(1,-23147.405,200.995)"
             id="text417">Stellate cell (Svep1-Dpt)  </text>
        </g>
        <g
           class="ytick"
           id="g423">
          <text
             text-anchor="end"
             x="90.599998"
             y="4.1999998"
             style="font-size:12px;font-family:'Open Sans', verdana, arial, sans-serif;white-space:pre;opacity:1;fill:#444444;fill-opacity:1"
             transform="rotate(1,-21057.308,182.755)"
             id="text421">Progenitor (ADM)  </text>
        </g>
        <g
           class="ytick"
           id="g427">
          <text
             text-anchor="end"
             x="90.599998"
             y="4.1999998"
             style="font-size:12px;font-family:'Open Sans', verdana, arial, sans-serif;white-space:pre;opacity:1;fill:#444444;fill-opacity:1"
             transform="rotate(1,-18966.638,164.51)"
             id="text425">Muscularis cell  </text>
        </g>
        <g
           class="ytick"
           id="g431">
          <text
             text-anchor="end"
             x="90.599998"
             y="4.1999998"
             style="font-size:12px;font-family:'Open Sans', verdana, arial, sans-serif;white-space:pre;opacity:1;fill:#444444;fill-opacity:1"
             transform="rotate(1,-16875.968,146.265)"
             id="text429">Fibroblast (Rgs5)  </text>
        </g>
        <g
           class="ytick"
           id="g435">
          <text
             text-anchor="end"
             x="90.599998"
             y="4.1999998"
             style="font-size:12px;font-family:'Open Sans', verdana, arial, sans-serif;white-space:pre;opacity:1;fill:#444444;fill-opacity:1"
             transform="rotate(1,-14785.299,128.02)"
             id="text433">Dendritic (Cd209a)  </text>
        </g>
        <g
           class="ytick"
           id="g439">
          <text
             text-anchor="end"
             x="90.599998"
             y="4.1999998"
             style="font-size:12px;font-family:'Open Sans', verdana, arial, sans-serif;white-space:pre;opacity:1;fill:#444444;fill-opacity:1"
             transform="rotate(1,-12694.629,109.775)"
             id="text437">Stellate cell (Fgf1)  </text>
        </g>
        <g
           class="ytick"
           id="g443">
          <text
             text-anchor="end"
             x="90.599998"
             y="4.1999998"
             style="font-size:12px;font-family:'Open Sans', verdana, arial, sans-serif;white-space:pre;opacity:1;fill:#444444;fill-opacity:1"
             transform="rotate(1,-10603.959,91.53)"
             id="text441">Enterochromaffn cell  </text>
        </g>
        <g
           class="ytick"
           id="g447">
          <text
             text-anchor="end"
             x="90.599998"
             y="4.1999998"
             style="font-size:12px;font-family:'Open Sans', verdana, arial, sans-serif;white-space:pre;opacity:1;fill:#444444;fill-opacity:1"
             transform="rotate(1,-8513.2888,73.285)"
             id="text445">Pancreatic D cell  </text>
        </g>
      </g>
      <g
         class="overaxes-above"
         id="g451" />
    </g>
  </g>
  <g
     class="polarlayer"
     id="g457"
     transform="matrix(0.94297421,0,0,0.97738001,108.67578,21.75567)" />
  <g
     class="smithlayer"
     id="g459"
     transform="matrix(0.94297421,0,0,0.97738001,108.67578,21.75567)" />
  <g
     class="ternarylayer"
     id="g461"
     transform="matrix(0.94297421,0,0,0.97738001,108.67578,21.75567)" />
  <g
     class="geolayer"
     id="g463"
     transform="matrix(0.94297421,0,0,0.97738001,108.67578,21.75567)" />
  <g
     class="funnelarealayer"
     id="g465"
     transform="matrix(0.94297421,0,0,0.97738001,108.67578,21.75567)" />
  <g
     class="pielayer"
     id="g467"
     transform="matrix(0.94297421,0,0,0.97738001,108.67578,21.75567)" />
  <g
     class="iciclelayer"
     id="g469"
     transform="matrix(0.94297421,0,0,0.97738001,108.67578,21.75567)" />
  <g
     class="treemaplayer"
     id="g471"
     transform="matrix(0.94297421,0,0,0.97738001,108.67578,21.75567)" />
  <g
     class="sunburstlayer"
     id="g473"
     transform="matrix(0.94297421,0,0,0.97738001,108.67578,21.75567)" />
  <g
     class="glimages"
     id="g475"
     transform="matrix(0.94297421,0,0,0.97738001,108.67578,21.75567)" />
  <defs
     id="topdefs-17b0d3">
    <g
       class="clips"
       id="g477" />
  </defs>
  <g
     class="layer-above"
     id="g484"
     transform="matrix(0.94297421,0,0,0.97738001,108.67578,21.75567)">
    <g
       class="imagelayer"
       id="g480" />
    <g
       class="shapelayer"
       id="g482" />
  </g>
  <g
     class="infolayer"
     id="g492"
     transform="matrix(0.94297421,0,0,0.97738001,108.67578,21.75567)">
    <g
       class="g-gtitle"
       id="g486" />
    <g
       class="g-xtitle"
       id="g488" />
    <g
       class="g-ytitle"
       id="g490" />
  </g>
</svg>
